<?xml version="1.0" encoding="utf-8"?><svg viewBox="0 0 800 800" xmlns="http://www.w3.org/2000/svg" xmlns:xlink="http://www.w3.org/1999/xlink"><style>:root>svg{display:none}:root>svg:target{display:block}</style><svg fill="none" viewBox="0 0 61 61" id="approved" xmlns="http://www.w3.org/2000/svg">
    <g clip-path="url(#aaa)" fill="#000">
        <path d="m37.4 24.834-9.166 8.656-4.399-4.525a1.268 1.268 0 0 0-1.818 1.767l5.276 5.416a1.29 1.29 0 0 0 1.793.037l10.08-9.508a1.267 1.267 0 0 0 .051-1.793c-.49-.51-1.3-.532-1.818-.05Z"/>
        <path d="M30.598 11.511c-10.474 0-18.992 8.517-18.992 18.992 0 10.475 8.518 18.993 18.992 18.993 10.476 0 18.993-8.518 18.993-18.993 0-10.475-8.517-18.992-18.993-18.992Zm0 35.442c-9.076 0-16.45-7.386-16.45-16.45s7.374-16.45 16.45-16.45c9.086 0 16.45 7.365 16.45 16.45 0 9.085-7.364 16.45-16.45 16.45Z"/>
        <path d="m56.735 23.511.42-7.538a1.268 1.268 0 0 0-.7-1.208l-6.712-3.394L46.35 4.66a1.29 1.29 0 0 0-1.207-.7l-7.552.408L31.297.21a1.27 1.27 0 0 0-1.398 0l-6.292 4.157-7.538-.42a1.266 1.266 0 0 0-1.208.7l-3.395 6.712-6.711 3.394c-.45.23-.723.702-.7 1.207l.42 7.539-4.157 6.293a1.27 1.27 0 0 0 0 1.398l4.144 6.305-.42 7.538c-.029.506.246.982.7 1.208l6.712 3.394 3.394 6.712c.23.45.703.723 1.208.7l7.538-.42 6.293 4.157c.421.288.976.288 1.398 0l6.293-4.157 7.538.42c.506.029.98-.246 1.208-.7l3.394-6.712 6.712-3.394c.45-.23.723-.703.7-1.208l-.42-7.538 4.157-6.293a1.27 1.27 0 0 0 0-1.398l-4.132-6.293ZM54.37 36.453a1.193 1.193 0 0 0-.203.775l.394 7.131-6.343 3.204a1.254 1.254 0 0 0-.56.56l-3.203 6.343-7.131-.394a1.39 1.39 0 0 0-.776.203l-5.95 3.928-5.949-3.928a1.259 1.259 0 0 0-.699-.216h-.063l-7.132.394-3.204-6.343a1.251 1.251 0 0 0-.56-.56l-6.355-3.19.394-7.132a1.39 1.39 0 0 0-.204-.776l-3.928-5.949 3.928-5.95a1.19 1.19 0 0 0 .204-.774l-.394-7.132 6.343-3.204c.242-.12.438-.317.56-.559l3.203-6.344 7.132.395c.272.01.542-.061.775-.204l5.95-3.928 5.949 3.928c.227.155.501.228.776.204l7.13-.395 3.205 6.344c.12.242.317.438.559.56l6.343 3.203-.394 7.132c-.01.272.061.542.203.775l3.929 5.95-3.929 5.948Z"/>
    </g>
    <defs>
        <clipPath id="aaa">
            <path fill="#fff" d="M0 0h61v61H0z"/>
        </clipPath>
    </defs>
</svg><svg fill="none" viewBox="0 0 16 29" id="arrow-bottom" xmlns="http://www.w3.org/2000/svg">
    <path d="M8 0v28m0 0-7-7.19M8 28l7-7.19" stroke="#6E9C9F"/>
</svg><svg fill="none" viewBox="0 0 21 11" id="arrow-catalog" xmlns="http://www.w3.org/2000/svg">
    <path d="M0 5.5h20m0 0-5.135 5M20 5.5l-5.135-5" stroke="#000"/>
</svg><svg fill="none" viewBox="0 0 18 18" id="arrow-down" xmlns="http://www.w3.org/2000/svg">
    <g clip-path="url(#ada)">
        <path d="M4 7.496c0 .128.023.254.069.37a.853.853 0 0 0 .195.298l4.286 4.141a.646.646 0 0 0 .453.195.646.646 0 0 0 .454-.195l4.285-4.287a.922.922 0 0 0 .255-.58.978.978 0 0 0-.162-.628.688.688 0 0 0-.485-.306.638.638 0 0 0-.522.194L9 10.53 5.17 6.827a.662.662 0 0 0-.368-.192.61.61 0 0 0-.396.076.777.777 0 0 0-.299.32.99.99 0 0 0-.108.465Z" fill="#000"/>
    </g>
    <defs>
        <clipPath id="ada">
            <path fill="#000" transform="matrix(0 -1 -1 0 18 18)" d="M0 0h18v18H0z"/>
        </clipPath>
    </defs>
</svg><svg fill="none" viewBox="0 0 32 24" id="arrow-right" xmlns="http://www.w3.org/2000/svg">
    <path d="M0 12h31m0 0L20.186 1M31 12 20.186 23" stroke="#fff"/>
</svg><svg data-name="Layer 1" viewBox="0 0 122.88 122.88" id="cancel" xmlns="http://www.w3.org/2000/svg">
    <path d="M61.44 0A61.44 61.44 0 1 1 0 61.44 61.44 61.44 0 0 1 61.44 0Zm13.14 36.8c1.74-1.77 2.83-3.18 5-1l7 7.13c2.29 2.26 2.17 3.58 0 5.69L73.33 61.83l12.75 12.75c1.77 1.74 3.18 2.83 1 5l-7.13 7c-2.26 2.29-3.58 2.17-5.68 0L61.44 73.72 48.63 86.53c-2.1 2.15-3.42 2.27-5.68 0l-7.13-7c-2.2-2.15-.79-3.24 1-5l12.73-12.7-13.2-13.19c-2.15-2.11-2.27-3.43 0-5.69l7-7.13c2.15-2.2 3.24-.79 5 1l13.09 13.12L74.58 36.8Z" style="fill:#f44336;fill-rule:evenodd"/>
</svg><svg fill="none" viewBox="0 0 16 16" id="clock" xmlns="http://www.w3.org/2000/svg">
    <path clip-rule="evenodd" d="M8 14.667A6.667 6.667 0 1 0 8 1.333a6.667 6.667 0 0 0 0 13.334Z" stroke="#7E9BBD" stroke-width="2" stroke-linecap="round" stroke-linejoin="round"/>
    <path d="M8 4v4l2 2" stroke="#7E9BBD" stroke-width="2" stroke-linecap="round" stroke-linejoin="round"/>
</svg><svg fill="none" viewBox="0 0 14 8" id="control-down" xmlns="http://www.w3.org/2000/svg">
    <path d="m1 1 6 6 6-6" stroke="#A0BBCC" stroke-width="2" stroke-linecap="round" stroke-linejoin="round"/>
</svg><svg fill="none" viewBox="0 0 14 8" id="control-up" xmlns="http://www.w3.org/2000/svg">
    <path d="M13 7 7 1 1 7" stroke="#A0BBCC" stroke-width="2" stroke-linecap="round" stroke-linejoin="round"/>
</svg><svg fill="none" viewBox="0 0 16 16" id="delete" xmlns="http://www.w3.org/2000/svg">
    <path d="m1 1 14.5 14.5m0-14.5L1 15.5" stroke="#000"/>
</svg><svg viewBox="3 3 16 16" id="done" xmlns="http://www.w3.org/2000/svg">
    <g transform="translate(-10.994 -2071.68) scale(1.99997)" fill="#da4453">
        <rect y="1037.36" x="7" height="8" width="8" fill="#32c671" rx="4"/>
        <path d="m13.577 1040.285-.483-.483a.329.329 0 0 0-.241-.1.329.329 0 0 0-.242.1l-2.33 2.334-1.045-1.048a.329.329 0 0 0-.241-.1.329.329 0 0 0-.242.1l-.483.483a.329.329 0 0 0-.1.242c0 .094.034.175.1.241l1.286 1.286.483.483c.066.067.147.1.242.1a.329.329 0 0 0 .241-.1l.483-.483 2.572-2.572a.33.33 0 0 0 .1-.241.329.329 0 0 0-.1-.242" fill="#fff"/>
    </g>
</svg><svg fill="none" viewBox="0 0 24 24" id="edit" xmlns="http://www.w3.org/2000/svg">
    <path clip-rule="evenodd" d="m14 2 4 4L7 17H3v-4L14 2v0Z" stroke="#fff" stroke-width="2" stroke-linecap="round" stroke-linejoin="round"/>
    <path d="M3 22h18" stroke="#fff" stroke-width="2" stroke-linecap="round" stroke-linejoin="round"/>
</svg><svg fill="none" viewBox="0 0 21 21" id="facebook" xmlns="http://www.w3.org/2000/svg">
    <g clip-path="url(#ama)">
        <path d="M18.54 0H2.46A2.464 2.464 0 0 0 0 2.46v16.08A2.464 2.464 0 0 0 2.46 21h16.08A2.464 2.464 0 0 0 21 18.54V2.46A2.464 2.464 0 0 0 18.54 0Zm.82 18.54c0 .451-.369.82-.82.82H13.7V13.37h2.625l.306-2.543H13.7V8.08c0-.701.53-1.23 1.23-1.23h1.846V4.47c-.485-.068-1.422-.163-1.845-.163-.957 0-1.916.403-2.631 1.107-.737.725-1.143 1.674-1.143 2.673v2.741H8.49v2.543h2.666v5.988H2.461a.821.821 0 0 1-.82-.82V2.461c0-.452.368-.82.82-.82h16.078c.452 0 .82.368.82.82v16.078Z" fill="#000"/>
    </g>
    <defs>
        <clipPath id="ama">
            <path fill="#fff" d="M0 0h21v21H0z"/>
        </clipPath>
    </defs>
</svg><svg fill="none" viewBox="0 0 20 20" id="favorite" xmlns="http://www.w3.org/2000/svg">
    <path d="m9.223 17.115-.001-.002c-2.595-2.353-4.668-4.235-6.104-5.99C1.693 9.38 1 7.885 1 6.323c0-2.527 1.972-4.5 4.5-4.5 1.437 0 2.832.674 3.739 1.739l.761.894.761-.894c.907-1.065 2.302-1.739 3.739-1.739 2.528 0 4.5 1.972 4.5 4.5 0 1.562-.693 3.057-2.118 4.8-1.436 1.757-3.509 3.641-6.103 6h-.002l-.774.7-.78-.71Z" fill="#fff" stroke="#0C0C0C" stroke-width="2"/>
</svg><svg fill="none" viewBox="0 0 24 24" id="folder" xmlns="http://www.w3.org/2000/svg">
    <path clip-rule="evenodd" d="M22 19a2 2 0 0 1-2 2H4a2 2 0 0 1-2-2V5a2 2 0 0 1 2-2h5l2 3h9a2 2 0 0 1 2 2v11Z" stroke="#fff" stroke-width="2" stroke-linecap="round" stroke-linejoin="round"/>
</svg><svg fill="none" viewBox="0 0 63 63" id="hand" xmlns="http://www.w3.org/2000/svg">
    <path d="M24.777 43.79c-.336 0-.672-.128-.929-.383L6.216 25.772a5.257 5.257 0 0 1 0-7.426 5.258 5.258 0 0 1 7.423 0l15.78 15.779a1.313 1.313 0 0 1-1.856 1.856l-15.78-15.779a2.634 2.634 0 0 0-3.711 0 2.618 2.618 0 0 0-.77 1.856c0 .703.274 1.362.77 1.858l17.635 17.632a1.313 1.313 0 0 1-.93 2.242Z" fill="#000"/>
    <path d="M34.06 30.797c-.337 0-.673-.13-.93-.384L15.498 12.778a2.625 2.625 0 1 0-3.714 3.712l1.855 1.856a1.313 1.313 0 0 1-1.855 1.856l-1.856-1.856a5.214 5.214 0 0 1-1.538-3.712c0-1.401.546-2.72 1.538-3.711 1.982-1.982 5.439-1.988 7.426 0l17.632 17.634a1.313 1.313 0 0 1-.927 2.24Z" fill="#000"/>
    <path d="M39.63 25.229c-.336 0-.672-.129-.93-.383L24.777 10.923a2.622 2.622 0 0 0-3.711 0 2.627 2.627 0 0 0 0 3.711 1.313 1.313 0 0 1-1.856 1.856 5.258 5.258 0 0 1 0-7.423 5.258 5.258 0 0 1 7.423 0L40.556 22.99a1.313 1.313 0 0 1-.926 2.239Z" fill="#000"/>
    <path d="M38.196 59.467c-.884 0-1.78-.1-2.667-.302l-22.102-5.066a5.123 5.123 0 0 1-2.57-1.413 5.221 5.221 0 0 1-1.54-3.711c0-1.402.548-2.72 1.54-3.712a5.12 5.12 0 0 1 2.407-1.37c.026-.01.053-.016.079-.024l11.13-2.67a1.308 1.308 0 0 1 1.583.972 1.316 1.316 0 0 1-.972 1.582l-11.053 2.652-.105.029a2.488 2.488 0 0 0-1.213.687 2.61 2.61 0 0 0-.772 1.856c0 .701.273 1.36.772 1.856a2.547 2.547 0 0 0 1.268.704l22.136 5.074a9.13 9.13 0 0 0 8.55-2.46l10.741-10.744A9.128 9.128 0 0 0 58.1 36.91c0-2.454-.955-4.76-2.69-6.497L32.206 7.211a2.622 2.622 0 0 0-3.712 0 2.627 2.627 0 0 0 0 3.712 1.313 1.313 0 0 1-1.855 1.855 5.258 5.258 0 0 1 0-7.423 5.258 5.258 0 0 1 7.423 0l23.202 23.202a11.72 11.72 0 0 1 3.46 8.353 11.73 11.73 0 0 1-3.46 8.353L46.523 56.007a11.765 11.765 0 0 1-8.327 3.46Z" fill="#000"/>
</svg><svg fill="none" viewBox="0 0 22 23" id="instagram" xmlns="http://www.w3.org/2000/svg">
    <g clip-path="url(#aqa)" fill="#000">
        <path d="M15.61.5H6.39A6.398 6.398 0 0 0 0 6.89v9.22a6.398 6.398 0 0 0 6.39 6.39h9.22A6.398 6.398 0 0 0 22 16.11V6.89A6.398 6.398 0 0 0 15.61.5Zm4.671 15.61a4.677 4.677 0 0 1-4.672 4.671H6.391a4.677 4.677 0 0 1-4.672-4.672V6.891A4.677 4.677 0 0 1 6.39 2.219h9.218a4.677 4.677 0 0 1 4.672 4.672v9.218Z"/>
        <path d="M11 5.57c-3.27 0-5.93 2.66-5.93 5.93 0 3.27 2.66 5.93 5.93 5.93 3.27 0 5.93-2.66 5.93-5.93 0-3.27-2.66-5.93-5.93-5.93Zm0 10.14a4.216 4.216 0 0 1-4.21-4.21A4.216 4.216 0 0 1 11 7.29a4.216 4.216 0 0 1 4.21 4.21A4.216 4.216 0 0 1 11 15.71ZM17.016 6.344a.86.86 0 1 0 0-1.72.86.86 0 0 0 0 1.72Z"/>
    </g>
    <defs>
        <clipPath id="aqa">
            <path fill="#fff" transform="translate(0 .5)" d="M0 0h22v22H0z"/>
        </clipPath>
    </defs>
</svg><svg fill="none" viewBox="0 0 25 25" id="logo" xmlns="http://www.w3.org/2000/svg">
    <g clip-path="url(#ara)">
        <path d="m21.517 22.65-.358-1.672a28.3 28.3 0 0 0-4.02-9.625V8.64a3.659 3.659 0 0 0 1.465-2.928V4.248a.732.732 0 0 0-.733-.732h-.732V.732a.733.733 0 0 0-1.465 0v2.791A4.15 4.15 0 0 0 12.5 5.315a4.15 4.15 0 0 0-3.174-1.792V.733a.732.732 0 0 0-1.465 0v2.783H7.13a.732.732 0 0 0-.732.732v1.465c0 1.195.576 2.259 1.464 2.928v2.712a28.3 28.3 0 0 0-4.02 9.625l-.358 1.671a.732.732 0 0 0 .466.842A24.91 24.91 0 0 0 12.5 25a24.91 24.91 0 0 0 8.552-1.51.732.732 0 0 0 .465-.84ZM15.918 4.98h1.22v.733a2.2 2.2 0 0 1-2.197 2.197h-1.709v-.244a2.689 2.689 0 0 1 2.686-2.686Zm-8.057 0h1.221a2.689 2.689 0 0 1 2.686 2.686v.244h-1.71a2.2 2.2 0 0 1-2.197-2.197V4.98Zm2.198 4.395h4.883c.25 0 .495-.025.732-.074v1.539H9.326V9.3c.237.049.482.074.733.074Zm2.441 14.16c-2.541 0-5.044-.407-7.45-1.21l.224-1.04a26.84 26.84 0 0 1 3.715-8.98h7.022a26.84 26.84 0 0 1 3.716 8.98l.222 1.04a23.444 23.444 0 0 1-7.449 1.21Z" fill="#000"/>
    </g>
    <defs>
        <clipPath id="ara">
            <path fill="#fff" d="M0 0h25v25H0z"/>
        </clipPath>
    </defs>
</svg><svg viewBox="0 0 24 24" fill="none" id="logout" xmlns="http://www.w3.org/2000/svg">
    <path fill-rule="evenodd" clip-rule="evenodd" d="M2 6.5A4.5 4.5 0 0 1 6.5 2H12a4 4 0 0 1 4 4v1a1 1 0 1 1-2 0V6a2 2 0 0 0-2-2H6.5A2.5 2.5 0 0 0 4 6.5v11A2.5 2.5 0 0 0 6.5 20H12a2 2 0 0 0 2-2v-1a1 1 0 1 1 2 0v1a4 4 0 0 1-4 4H6.5A4.5 4.5 0 0 1 2 17.5v-11Zm16.293 1.793a1 1 0 0 1 1.414 0l3 3a1 1 0 0 1 0 1.414l-3 3a1 1 0 0 1-1.414-1.414L19.586 13H11a1 1 0 1 1 0-2h8.586l-1.293-1.293a1 1 0 0 1 0-1.414Z" fill="#0F1729"/>
</svg><svg fill="none" viewBox="0 0 24 24" id="mail" xmlns="http://www.w3.org/2000/svg">
    <path clip-rule="evenodd" d="M4 4h16c1.1 0 2 .9 2 2v12c0 1.1-.9 2-2 2H4c-1.1 0-2-.9-2-2V6c0-1.1.9-2 2-2Z" stroke="#fff" stroke-width="2" stroke-linecap="round" stroke-linejoin="round"/>
    <path d="m22 6-10 7L2 6" stroke="#fff" stroke-width="2" stroke-linecap="round" stroke-linejoin="round"/>
</svg><svg fill="none" viewBox="0 0 780 500" id="mastercard" xmlns="http://www.w3.org/2000/svg">
    <g clip-path="url(#aua)">
        <path d="M40 0h700c22.092 0 40 17.909 40 40v420c0 22.092-17.908 40-40 40H40c-22.091 0-40-17.908-40-40V40C0 17.909 17.909 0 40 0Z" fill="#253747"/>
        <path d="M211.053 467.045v-28.936c0-11.068-6.742-18.316-18.317-18.316-5.787 0-12.079 1.91-16.406 8.203-3.371-5.281-8.203-8.203-15.451-8.203-4.832 0-9.664 1.461-13.484 6.742v-5.787h-10.114v46.297h10.114v-25.564c0-8.203 4.326-12.08 11.068-12.08s10.114 4.326 10.114 12.08v25.564h10.113v-25.564c0-8.203 4.832-12.08 11.069-12.08 6.742 0 10.113 4.326 10.113 12.08v25.564h11.181Zm150.015-46.297h-16.406v-13.99h-10.113v13.99h-9.158v9.158h9.158v21.239c0 10.619 4.326 16.855 15.9 16.855 4.327 0 9.159-1.461 12.53-3.371l-2.922-8.709c-2.922 1.911-6.293 2.416-8.709 2.416-4.832 0-6.742-2.921-6.742-7.697v-20.733h16.406v-9.158h.056Zm85.852-1.011c-5.787 0-9.664 2.921-12.08 6.742v-5.787h-10.113v46.297h10.113v-26.07c0-7.698 3.371-12.08 9.664-12.08 1.91 0 4.326.506 6.293.955l2.921-9.664c-2.022-.393-4.888-.393-6.798-.393Zm-129.733 4.832c-4.831-3.371-11.574-4.832-18.822-4.832-11.574 0-19.271 5.787-19.271 14.945 0 7.698 5.787 12.08 15.9 13.485l4.832.505c5.282.956 8.203 2.416 8.203 4.832 0 3.371-3.877 5.787-10.619 5.787s-12.08-2.416-15.451-4.832l-4.832 7.698c5.282 3.877 12.53 5.787 19.777 5.787 13.485 0 21.239-6.293 21.239-14.945 0-8.203-6.293-12.53-15.901-13.991l-4.832-.505c-4.326-.506-7.697-1.461-7.697-4.327 0-3.371 3.371-5.281 8.708-5.281 5.788 0 11.575 2.416 14.496 3.877l4.27-8.203Zm269.073-4.832c-5.787 0-9.664 2.921-12.08 6.742v-5.787h-10.113v46.297h10.113v-26.07c0-7.698 3.371-12.08 9.664-12.08 1.91 0 4.326.506 6.293.955l2.922-9.552c-1.967-.505-4.832-.505-6.799-.505Zm-129.227 24.16c0 13.99 9.664 24.103 24.61 24.103 6.742 0 11.574-1.461 16.406-5.281l-4.832-8.203c-3.877 2.921-7.698 4.326-12.08 4.326-8.203 0-13.99-5.787-13.99-14.945 0-8.709 5.787-14.496 13.99-14.946 4.326 0 8.203 1.461 12.08 4.327l4.832-8.204c-4.832-3.876-9.664-5.281-16.406-5.281-14.946-.056-24.61 10.113-24.61 24.104Zm93.549 0v-23.149h-10.113v5.787c-3.371-4.326-8.203-6.742-14.496-6.742-13.035 0-23.148 10.113-23.148 24.104 0 13.99 10.113 24.103 23.148 24.103 6.742 0 11.574-2.416 14.496-6.742v5.787h10.113v-23.148Zm-37.138 0c0-8.204 5.281-14.946 13.99-14.946 8.203 0 13.99 6.293 13.99 14.946 0 8.203-5.787 14.945-13.99 14.945-8.653-.506-13.99-6.799-13.99-14.945Zm-121.024-24.16c-13.485 0-23.149 9.664-23.149 24.103 0 14.496 9.664 24.104 23.655 24.104 6.742 0 13.484-1.91 18.822-6.293l-4.832-7.248c-3.877 2.922-8.709 4.832-13.485 4.832-6.292 0-12.529-2.921-13.99-11.068h34.217v-3.877c.45-14.889-8.259-24.553-21.238-24.553Zm0 8.709c6.293 0 10.619 3.876 11.574 11.068h-24.103c.955-6.236 5.281-11.068 12.529-11.068Zm251.262 15.451v-41.465h-10.114v24.103c-3.371-4.326-8.203-6.742-14.495-6.742-13.036 0-23.149 10.113-23.149 24.104 0 13.99 10.113 24.103 23.149 24.103 6.742 0 11.574-2.416 14.495-6.742v5.787h10.114v-23.148Zm-37.139 0c0-8.204 5.282-14.946 13.99-14.946 8.203 0 13.991 6.293 13.991 14.946 0 8.203-5.788 14.945-13.991 14.945-8.708-.506-13.99-6.799-13.99-14.945Zm-338.574 0v-23.149h-10.114v5.787c-3.371-4.326-8.203-6.742-14.495-6.742-13.035 0-23.149 10.113-23.149 24.104 0 13.99 10.114 24.103 23.149 24.103 6.742 0 11.574-2.416 14.495-6.742v5.787h10.114v-23.148Zm-37.588 0c0-8.204 5.281-14.946 13.99-14.946 8.203 0 13.99 6.293 13.99 14.946 0 8.203-5.787 14.945-13.99 14.945-8.709-.506-13.99-6.799-13.99-14.945Z" fill="#fff"/>
        <path d="M465.738 69.139H313.812v272.949h151.926V69.138Z" fill="#FF5A00"/>
        <path d="M323.926 205.613c0-55.455 26.07-104.673 66.074-136.474C360.559 45.99 323.42 32 282.91 32c-95.965 0-173.613 77.648-173.613 173.613s77.648 173.614 173.613 173.614c40.51 0 77.649-13.99 107.09-37.139-40.06-31.351-66.074-81.019-66.074-136.475Z" fill="#EB001B"/>
        <path d="M670.711 205.613c0 95.965-77.649 173.614-173.613 173.614-40.51 0-77.649-13.99-107.09-37.139 40.51-31.857 66.074-81.019 66.074-136.475 0-55.455-26.07-104.673-66.074-136.474C419.393 45.99 456.532 32 497.041 32c96.021 0 173.67 78.154 173.67 173.613Z" fill="#F79E1B"/>
    </g>
    <defs>
        <clipPath id="aua">
            <path fill="#fff" d="M0 0h780v500H0z"/>
        </clipPath>
    </defs>
</svg><svg fill="none" viewBox="0 0 24 24" id="message-square" xmlns="http://www.w3.org/2000/svg">
    <path clip-rule="evenodd" d="M21 15a2 2 0 0 1-2 2H7l-4 4V5a2 2 0 0 1 2-2h14a2 2 0 0 1 2 2v10Z" stroke="#fff" stroke-width="2" stroke-linecap="round" stroke-linejoin="round"/>
</svg><svg version="1.1" id="mir" x="0" y="0" viewBox="0 0 780 500" style="enable-background:new 0 0 780 500" xml:space="preserve" xmlns="http://www.w3.org/2000/svg">
    <style>.awst1{fill:#37a72e}</style>
    <path d="M40 0h700c22.1 0 40 17.9 40 40v420c0 22.1-17.9 40-40 40H40c-22.1 0-40-17.9-40-40V40C0 17.9 17.9 0 40 0z" style="fill:#fff"/>
    <g id="awPage-1">
        <g id="awArtboard" transform="translate(-91 -154)">
            <g id="awGroup" transform="translate(91 154)">
                <path id="awCombined-Shape" class="awst1" d="M544.1 240.5v108h60v-64h68c28.6-.2 52.9-18.5 62.1-44H544.1z"/>
                <linearGradient id="awCombined-Shape_4_" gradientUnits="userSpaceOnUse" x1="362.405" y1="275.431" x2="363.405" y2="275.431" gradientTransform="matrix(201.7633 0 0 -79 -72583.844 21950.025)">
                    <stop offset="0" style="stop-color:#00a0e5"/>
                    <stop offset="1" style="stop-color:#0077c3"/>
                </linearGradient>
                <path id="awCombined-Shape_1_" d="M536.1 151.5c3.5 44.1 45.3 79 96.3 79h104.3c.8-4 1.2-8.2 1.2-12.5 0-36.6-29.5-66.2-66-66.5H536.1z" style="fill:url(#awCombined-Shape_4_)"/>
                <path id="awCombined-Shape_2_" class="awst1" d="M447.3 229.4v-.1.1c.7-1.2 1.8-1.9 3.2-1.9 2 0 3.5 1.6 3.6 3.5v116.5h60v-196h-60c-7.6.3-16.2 5.8-19.4 12.7L387 266.6c-.1.4-.3.8-.5 1.2-.7 1-1.9 1.7-3.3 1.7-2.2 0-4-1.8-4-4v-114h-60v196h60c7.5-.4 15.9-5.9 19.1-12.7l49-105.1c-.1-.1 0-.2 0-.3z"/>
                <path id="awCombined-Shape_3_" class="awst1" d="m223.3 232.8-35.1 114.7H145l-35-114.8c-.3-1.8-1.9-3.2-3.9-3.2-2.2 0-3.9 1.8-3.9 3.9v114h-60v-196H109c11 0 22.6 8.6 25.8 19.1L164 266c1.5 4.8 3.8 4.7 5.3 0l29.2-95.5c3.2-10.6 14.8-19.1 25.8-19.1h66.8v196h-60V233.3c0-2.2-1.8-3.9-3.9-3.9-2 .1-3.6 1.5-3.9 3.4z"/>
            </g>
        </g>
    </g>
</svg><svg xml:space="preserve" viewBox="0 0 780 500" id="paypal" xmlns="http://www.w3.org/2000/svg">
    <path d="M725 0H55C24.673 0 0 24.673 0 55v391c0 30.327 24.673 55 55 55h670c30.325 0 55-24.673 55-55V55c0-30.327-24.675-55-55-55z" fill="#FFF"/>
    <path d="M168.38 169.85c-8.399-5.774-19.359-8.668-32.88-8.668H83.154c-4.145 0-6.435 2.073-6.87 6.214l-21.265 133.48c-.221 1.311.107 2.51.981 3.6.869 1.093 1.962 1.636 3.271 1.636h24.864c4.361 0 6.758-2.068 7.198-6.216l5.888-35.985c.215-1.744.982-3.162 2.291-4.254 1.308-1.09 2.944-1.804 4.907-2.13 1.963-.324 3.814-.487 5.562-.487 1.743 0 3.814.11 6.217.327 2.397.218 3.925.324 4.58.324 18.756 0 33.478-5.285 44.167-15.866 10.684-10.577 16.032-25.244 16.032-44.004 0-12.868-4.202-22.192-12.597-27.975zm-26.99 40.08c-1.094 7.635-3.926 12.649-8.506 15.049-4.581 2.403-11.124 3.597-19.629 3.597l-10.797.328 5.563-35.007c.434-2.397 1.851-3.597 4.252-3.597h6.218c8.72 0 15.049 1.257 18.975 3.761 3.924 2.51 5.233 7.802 3.924 15.869z" fill="#003087"/>
    <path d="M720.79 161.18h-24.208c-2.405 0-3.821 1.2-4.253 3.599l-21.267 136.1-.328.654c0 1.096.437 2.127 1.311 3.109.868.979 1.963 1.471 3.271 1.471h21.595c4.138 0 6.429-2.068 6.871-6.215l21.265-133.81v-.325c-.002-3.053-1.424-4.58-4.257-4.58z" fill="#009CDE"/>
    <path d="M428.31 213.86c0-1.088-.438-2.126-1.306-3.106-.875-.981-1.857-1.474-2.945-1.474h-25.191c-2.404 0-4.366 1.096-5.89 3.271l-34.679 51.04-14.394-49.075c-1.096-3.488-3.493-5.236-7.198-5.236h-24.54c-1.093 0-2.075.492-2.942 1.474-.875.98-1.309 2.019-1.309 3.106 0 .44 2.127 6.871 6.379 19.303 4.252 12.434 8.833 25.848 13.741 40.244 4.908 14.394 7.468 22.031 7.688 22.898-17.886 24.43-26.826 37.518-26.826 39.26 0 2.838 1.417 4.254 4.253 4.254h25.191c2.399 0 4.361-1.088 5.89-3.271l83.427-120.4c.433-.433.651-1.193.651-2.289z" fill="#003087"/>
    <path d="M662.89 209.28h-24.865c-3.056 0-4.904 3.599-5.559 10.797-5.677-8.72-16.031-13.088-31.083-13.088-15.704 0-29.065 5.89-40.077 17.668-11.016 11.779-16.521 25.631-16.521 41.551 0 12.871 3.761 23.121 11.285 30.752 7.524 7.639 17.611 11.451 30.266 11.451 6.323 0 12.757-1.311 19.3-3.926 6.544-2.617 11.665-6.105 15.379-10.469 0 .219-.222 1.198-.654 2.942-.44 1.748-.655 3.06-.655 3.926 0 3.494 1.414 5.234 4.254 5.234h22.576c4.138 0 6.541-2.068 7.193-6.216l13.415-85.389c.215-1.309-.111-2.507-.981-3.599-.876-1.087-1.964-1.634-3.273-1.634zm-42.694 64.452c-5.562 5.453-12.269 8.179-20.12 8.179-6.328 0-11.449-1.742-15.377-5.234-3.928-3.483-5.891-8.282-5.891-14.396 0-8.064 2.727-14.884 8.181-20.446 5.446-5.562 12.214-8.343 20.284-8.343 6.102 0 11.174 1.8 15.212 5.397 4.032 3.599 6.055 8.563 6.055 14.888-.001 7.851-2.783 14.505-8.344 19.955z" fill="#009CDE"/>
    <path d="M291.23 209.28h-24.864c-3.058 0-4.908 3.599-5.563 10.797-5.889-8.72-16.25-13.088-31.081-13.088-15.704 0-29.065 5.89-40.078 17.668-11.016 11.779-16.521 25.631-16.521 41.551 0 12.871 3.763 23.121 11.288 30.752 7.525 7.639 17.61 11.451 30.262 11.451 6.104 0 12.433-1.311 18.975-3.926 6.543-2.617 11.778-6.105 15.704-10.469-.875 2.616-1.309 4.907-1.309 6.868 0 3.494 1.417 5.234 4.253 5.234h22.574c4.141 0 6.543-2.068 7.198-6.216l13.413-85.389c.215-1.309-.112-2.507-.981-3.599-.873-1.087-1.962-1.634-3.27-1.634zm-42.695 64.614c-5.563 5.351-12.382 8.017-20.447 8.017-6.329 0-11.4-1.742-15.214-5.234-3.819-3.483-5.726-8.282-5.726-14.396 0-8.064 2.725-14.884 8.18-20.446 5.449-5.562 12.211-8.343 20.284-8.343 6.104 0 11.175 1.8 15.214 5.398 4.032 3.599 6.052 8.563 6.052 14.888 0 8.069-2.781 14.778-8.343 20.116z" fill="#003087"/>
    <path d="M540.04 169.85c-8.398-5.774-19.356-8.668-32.879-8.668h-52.02c-4.364 0-6.765 2.073-7.197 6.214l-21.266 133.48c-.221 1.312.106 2.511.981 3.601.865 1.092 1.962 1.635 3.271 1.635h26.826c2.617 0 4.361-1.416 5.235-4.252l5.89-37.949c.216-1.744.98-3.162 2.29-4.254 1.309-1.09 2.943-1.803 4.908-2.13 1.962-.324 3.812-.487 5.562-.487 1.743 0 3.814.11 6.214.327 2.399.218 3.931.324 4.58.324 18.76 0 33.479-5.285 44.168-15.866 10.688-10.577 16.031-25.244 16.031-44.004.002-12.867-4.199-22.191-12.594-27.974zm-33.534 53.82c-4.799 3.271-11.997 4.906-21.592 4.906l-10.47.328 5.562-35.007c.432-2.397 1.849-3.597 4.252-3.597h5.887c4.798 0 8.614.218 11.454.653 2.831.44 5.562 1.799 8.179 4.089 2.618 2.291 3.926 5.618 3.926 9.98 0 9.16-2.402 15.375-7.198 18.648z" fill="#009CDE"/>
</svg><svg fill="none" viewBox="0 0 17 17" id="phone" xmlns="http://www.w3.org/2000/svg">
    <g clip-path="url(#aya)" fill="#6E9C9F">
        <path d="M2.252 4.816a3.856 3.856 0 0 0 0 5.448l.798-.798a2.727 2.727 0 0 1 0-3.852 2.727 2.727 0 0 1 3.852 0l.797-.798a3.856 3.856 0 0 0-5.447 0Z"/>
        <path d="M3.841 6.391a1.623 1.623 0 0 0 0 2.293l.798-.797a.49.49 0 0 1 0-.698.49.49 0 0 1 .698 0l.797-.798a1.623 1.623 0 0 0-2.293 0ZM13.748 4.435l-1.893-1.887-3.932 3.926 1.525 1.574c-.256.453-.81 1.322-1.755 2.267a10.919 10.919 0 0 1-2.277 1.764l-1.543-1.523-3.87 3.847 1.882 1.895c.72.72 1.815.907 2.725.465 1.39-.675 3.485-1.92 5.584-4.019 2.1-2.098 3.344-4.195 4.018-5.584.16-.329.238-.682.238-1.033 0-.62-.242-1.232-.702-1.692Zm-.55 2.232c-.637 1.311-1.814 3.292-3.801 5.28-1.988 1.988-3.969 3.164-5.28 3.8a1.255 1.255 0 0 1-1.433-.245l-1.087-1.094 2.278-2.264L5.19 13.44l.352-.156c.057-.026 1.417-.641 2.95-2.173 1.532-1.533 2.135-2.881 2.16-2.938l.152-.347-1.297-1.34 2.349-2.345 1.095 1.091c.38.38.479.957.247 1.434Z"/>
    </g>
    <defs>
        <clipPath id="aya">
            <path fill="#fff" d="M0 0h17v17H0z"/>
        </clipPath>
    </defs>
</svg><svg viewBox="0 0 24 24" fill="none" id="profile" xmlns="http://www.w3.org/2000/svg">
    <g clip-path="url(#aza)">
        <path fill="#fff" d="M0 0h24v24H0z"/>
        <g filter="url(#azb)">
            <path d="m14.336 12.347-.26-.428a.5.5 0 0 0 .115.906l.145-.478Zm-4.673 0 .146.478a.5.5 0 0 0 .114-.905l-.26.427Zm-5.601 6.655-.497-.062.497.062Zm15.876 0 .497-.062-.497.062ZM16 8.5c0 1.448-.77 2.717-1.924 3.42l.52.854A4.997 4.997 0 0 0 17 8.5h-1Zm-4-4a4 4 0 0 1 4 4h1a5 5 0 0 0-5-5v1Zm-4 4a4 4 0 0 1 4-4v-1a5 5 0 0 0-5 5h1Zm1.923 3.42A3.997 3.997 0 0 1 8 8.5H7c0 1.811.963 3.397 2.403 4.274l.52-.854Zm-.405-.052a8.509 8.509 0 0 0-5.953 7.072l.993.124a7.508 7.508 0 0 1 5.251-6.24l-.291-.956ZM3.565 18.94c-.11.888.626 1.56 1.435 1.56v-1c-.295 0-.468-.228-.442-.436l-.993-.124ZM5 20.5h14v-1H5v1Zm14 0c.81 0 1.545-.672 1.434-1.56l-.992.124c.026.208-.147.436-.442.436v1Zm1.434-1.56a8.509 8.509 0 0 0-5.952-7.072l-.291.957a7.508 7.508 0 0 1 5.251 6.239l.992-.124Z" fill="#000"/>
        </g>
    </g>
    <defs>
        <clipPath id="aza">
            <path fill="#fff" d="M0 0h24v24H0z"/>
        </clipPath>
        <filter id="azb" x="2.554" y="3.5" width="18.891" height="19" filterUnits="userSpaceOnUse" color-interpolation-filters="sRGB">
            <feFlood flood-opacity="0" result="BackgroundImageFix"/>
            <feColorMatrix in="SourceAlpha" values="0 0 0 0 0 0 0 0 0 0 0 0 0 0 0 0 0 0 127 0" result="hardAlpha"/>
            <feOffset dy="1"/>
            <feGaussianBlur stdDeviation=".5"/>
            <feColorMatrix values="0 0 0 0 0 0 0 0 0 0 0 0 0 0 0 0 0 0 0.1 0"/>
            <feBlend in2="BackgroundImageFix" result="effect1_dropShadow_15_82"/>
            <feBlend in="SourceGraphic" in2="effect1_dropShadow_15_82" result="shape"/>
        </filter>
    </defs>
</svg><svg fill="none" viewBox="0 0 78 78" id="settings" xmlns="http://www.w3.org/2000/svg">
    <path d="m63.661 50.349-5.895-4.192c.99-3.641.984-7.48-.017-11.119l5.915-4.14-4.722-8.17-6.578 3.009a21.073 21.073 0 0 0-9.64-5.545L42.098 13h-9.444l-.627 7.192a21.07 21.07 0 0 0-9.637 5.548l-6.58-3.01-4.72 8.171 5.915 4.14a21.07 21.07 0 0 0-.02 11.116l-5.895 4.192 4.72 8.132 6.58-3.013a21.07 21.07 0 0 0 9.637 5.544l.627 7.192h9.444l.628-7.192a21.073 21.073 0 0 0 9.636-5.544l6.581 3.012 4.722-8.128-.003-.003ZM43.891 9.701a1.625 1.625 0 0 1 1.625 1.55l.579 6.614a24.212 24.212 0 0 1 6.64 3.829l6.012-2.805a1.625 1.625 0 0 1 2.152.634L67.415 30.8a1.625 1.625 0 0 1-.527 2.181l-5.44 3.809c.416 2.593.403 5.177.003 7.667l5.437 3.802a1.625 1.625 0 0 1 .527 2.184L60.899 61.68a1.625 1.625 0 0 1-2.152.633l-6.012-2.804a24.207 24.207 0 0 1-6.64 3.831l-.579 6.614a1.625 1.625 0 0 1-1.625 1.547H30.86a1.625 1.625 0 0 1-1.625-1.547l-.579-6.614a24.222 24.222 0 0 1-6.64-3.831l-6.012 2.804a1.625 1.625 0 0 1-2.155-.63L7.335 50.44a1.625 1.625 0 0 1 .527-2.18l5.437-3.806a24.21 24.21 0 0 1 0-7.667L7.865 32.98a1.625 1.625 0 0 1-.526-2.178l6.506-11.28A1.625 1.625 0 0 1 16 18.889l6.012 2.805a24.212 24.212 0 0 1 6.64-3.829l.579-6.613a1.625 1.625 0 0 1 1.625-1.55H43.89ZM37.375 29.25a11.375 11.375 0 1 1 0 22.75 11.375 11.375 0 0 1 0-22.75Zm0 3.25a8.125 8.125 0 1 0 0 16.25 8.125 8.125 0 0 0 0-16.25Z" fill="#000"/>
</svg><svg fill="none" viewBox="0 0 24 24" id="shopping-bag" xmlns="http://www.w3.org/2000/svg">
    <g clip-path="url(#bba)" fill="#000">
        <path d="M23.845 8.224a.533.533 0 0 0-.444-.148h-6.367V5.263a5.034 5.034 0 1 0-10.068 0v2.813H.599c-.178 0-.355 0-.444.148a.504.504 0 0 0-.148.445l2.22 12.141a3.613 3.613 0 0 0 3.495 2.961h12.556a3.642 3.642 0 0 0 3.494-2.99l2.221-12.112a.503.503 0 0 0-.148-.445ZM8.15 5.263a3.85 3.85 0 0 1 7.7 0v2.813h-7.7V5.263Zm12.438 15.37a2.37 2.37 0 0 1-2.31 1.954H5.722a2.37 2.37 0 0 1-2.31-1.955L1.31 9.261h21.38l-2.102 11.371Z"/>
        <path d="M16.442 15.035a.592.592 0 0 0 .592-.592v-1.777a.592.592 0 0 0-1.184 0v1.777c0 .327.265.592.592.592ZM7.558 15.035a.592.592 0 0 0 .592-.592v-1.777a.592.592 0 1 0-1.184 0v1.777c0 .327.265.592.592.592Z"/>
    </g>
    <defs>
        <clipPath id="bba">
            <path fill="#fff" d="M0 0h24v24H0z"/>
        </clipPath>
    </defs>
</svg><svg fill="none" viewBox="0 0 29 16" id="slider-arrow" xmlns="http://www.w3.org/2000/svg">
    <path d="M29 8H1m0 0 7.19-7M1 8l7.19 7" stroke="#858585"/>
</svg><svg fill="none" viewBox="0 0 72 84" id="success" xmlns="http://www.w3.org/2000/svg">
    <path fill-rule="evenodd" clip-rule="evenodd" d="M53.122 30.876a2.999 2.999 0 0 1 0 4.248l-18 18a2.998 2.998 0 0 1-4.248 0l-9-9a3.004 3.004 0 0 1 4.248-4.248l6.876 6.882 15.876-15.882a3 3 0 0 1 4.248 0Z" fill="#6E9C9F"/>
    <path fill-rule="evenodd" clip-rule="evenodd" d="M12 0h48a12 12 0 0 1 12 12v60a12 12 0 0 1-12 12H12A12 12 0 0 1 0 72V12A12 12 0 0 1 12 0Zm0 6a6 6 0 0 0-6 6v60a6 6 0 0 0 6 6h48a6 6 0 0 0 6-6V12a6 6 0 0 0-6-6H12Z" fill="#6E9C9F"/>
</svg><svg fill="none" viewBox="0 0 24 24" id="target" xmlns="http://www.w3.org/2000/svg">
    <path clip-rule="evenodd" d="M12 22c5.523 0 10-4.477 10-10S17.523 2 12 2 2 6.477 2 12s4.477 10 10 10Z" stroke="#fff" stroke-width="2" stroke-linecap="round" stroke-linejoin="round"/>
    <path clip-rule="evenodd" d="M12 18a6 6 0 1 0 0-12 6 6 0 0 0 0 12Z" stroke="#fff" stroke-width="2" stroke-linecap="round" stroke-linejoin="round"/>
    <path clip-rule="evenodd" d="M12 14a2 2 0 1 0 0-4 2 2 0 0 0 0 4Z" stroke="#fff" stroke-width="2" stroke-linecap="round" stroke-linejoin="round"/>
</svg><svg fill="none" viewBox="0 0 23 23" id="twitter" xmlns="http://www.w3.org/2000/svg">
    <path d="m20.271 5.165-.011-.044a4.867 4.867 0 0 0 2.111-2.65 9.815 9.815 0 0 1-3.055 1.168c-.86-.918-2.01-1.483-3.369-1.483-2.604 0-4.761 2.109-4.761 4.717 0 .371.052.735.134 1.078v.045C7.44 7.774 3.924 5.8 1.617 2.965c-.405.697-.629 1.694-.629 2.56 0 1.348.8 3.153 2.067 3.998v.09c-.756-.03-1.53-.551-2.157-.898 0 .02.028.045.028.066 0 2.289 1.677 4.263 3.836 4.696-.376.1-.906.18-1.303.18-.305 0-.61-.08-.898-.136.6 1.877 2.335 3.1 4.402 3.1v.045c-1.609 1.247-3.647 2.111-5.84 2.111-.38 0-.853-.045-1.123-.09 2.086 1.34 4.566 2.157 7.232 2.157 8.678 0 13.432-7.143 13.432-13.387v-.629c.923-.667 1.705-1.567 2.336-2.516 0 0-1.656.785-2.729.853Zm-1.404 2.292c0 1.348-.264 2.764-.764 4.094a11.977 11.977 0 0 1-2.246 3.75c-1.514 1.709-4.239 3.746-8.625 3.746-.128 0-.257-.002-.386-.007.424-.245.83-.519 1.218-.82l.696-.539v-2.857l-.74-.008a1.477 1.477 0 0 1-1.461-1.477v-1.47l-.972-.219a.943.943 0 0 1-.735-.92V9.48l-.023-.916-.799-.534a3.666 3.666 0 0 1-.88-1.154c2.357 1.72 5.158 2.749 8.068 2.915l1.9.109v-2.16l-.05-.207a2.857 2.857 0 0 1-.086-.659c0-.774.31-1.504.87-2.057a2.968 2.968 0 0 1 2.095-.863c.796 0 1.49.308 2.06.915l.458.489.055.214.012.044.335 1.298v.544Z" fill="#000"/>
</svg><svg xml:space="preserve" viewBox="0 0 780 500" id="unionpay" xmlns="http://www.w3.org/2000/svg">
    <path d="M40 0h700c22.092 0 40 17.909 40 40v420c0 22.092-17.908 40-40 40H40c-22.091 0-40-17.908-40-40V40C0 17.909 17.909 0 40 0z" fill="#fff"/>
    <path d="M216.4 69.791h142.39c19.87 0 32.287 16.406 27.63 36.47l-66.333 287.48c-4.656 20.063-24.629 36.47-44.498 36.47h-142.39c-19.87 0-32.287-16.406-27.63-36.47l66.331-287.48c4.657-20.168 24.526-36.47 44.395-36.47h.104z" fill="#D10429"/>
    <path d="M346.34 69.791h163.82c19.868 0 10.865 16.406 6.209 36.47l-66.334 287.48c-4.657 20.063-3.208 36.47-23.077 36.47h-163.81c-19.972 0-32.287-16.406-27.527-36.47l66.334-287.48c4.656-20.168 24.524-36.47 44.498-36.47h-.104z" fill="#022E64"/>
    <path d="M504.41 69.791h142.4c19.869 0 32.287 16.406 27.629 36.47l-66.332 287.48c-4.658 20.063-24.631 36.47-44.499 36.47h-142.39c-19.973 0-32.287-16.406-27.63-36.47l66.333-287.48c4.656-20.168 24.525-36.47 44.394-36.47h.104z" fill="#076F74"/>
    <path d="M480.5 340.81h13.453l3.829-13.063h-13.351L480.5 340.81zm10.762-35.95-4.657 15.467s5.071-2.613 7.865-3.449c2.794-.627 6.933-1.15 6.933-1.15l3.208-10.763H491.16l.102-.105zm6.726-22.153-4.449 14.839s4.967-2.3 7.761-3.029c2.794-.732 6.933-.941 6.933-.941l3.208-10.764h-13.349l-.104-.105zm29.701 0-17.386 57.997h4.657l-3.622 12.018h-4.657l-1.138 3.657h-16.559l1.14-3.657h-33.529l3.311-11.076h3.415l17.594-58.938 3.518-11.913h16.868l-1.76 5.956s4.449-3.239 8.797-4.39c4.243-1.148 28.665-1.566 28.665-1.566l-3.622 11.809h-5.795l.103.103z" fill="#FEFEFE"/>
    <path d="M534.59 270.79h18.006l.207 6.792c-.103 1.149.828 1.672 3.001 1.672h3.622l-3.311 11.183h-9.729c-8.382.627-11.59-3.03-11.383-7.106l-.311-12.437-.102-.104zm2.216 53.2h-17.178l2.896-9.927h19.662l2.794-9.092h-19.351l3.311-11.182h53.812l-3.312 11.182h-18.109l-2.794 9.092h18.109l-3.002 9.927h-19.558l-3.518 4.18h7.968l1.966 12.54c.207 1.254.207 2.09.62 2.613.415.418 2.795.627 4.14.627h2.38l-3.725 12.227h-6.106c-.93 0-2.38-.104-4.346-.104-1.863-.21-3.104-1.255-4.346-1.882-1.139-.522-2.794-1.881-3.208-4.284l-1.863-12.54-8.899 12.331c-2.795 3.866-6.622 6.897-13.143 6.897h-12.418l3.311-10.869h4.761c1.346 0 2.588-.521 3.52-1.045.931-.418 1.758-.836 2.586-2.193l13.04-18.498zm-187.9-27.2h45.429l-3.312 10.973h-18.109l-2.793 9.299h18.627l-3.415 11.287h-18.524l-4.553 15.152c-.517 1.672 4.45 1.881 6.209 1.881l9.313-1.254-3.726 12.54h-20.904c-1.654 0-2.896-.209-4.76-.627-1.76-.418-2.587-1.254-3.311-2.403-.726-1.254-1.968-2.195-1.14-4.912l6.002-20.063h-10.348l3.415-11.495h10.348l2.794-9.3h-10.347l3.312-10.974-.207-.104zm31.387-19.835h18.627l-3.415 11.39h-25.457l-2.794 2.404c-1.242 1.15-1.552.732-3.105 1.568-1.447.73-4.449 2.193-8.382 2.193h-8.175l3.311-10.972h2.484c2.07 0 3.52-.21 4.243-.627.828-.522 1.76-1.672 2.69-3.554l4.656-8.568h18.525l-3.208 6.27v-.104zm35.107 18.81s5.07-4.701 13.764-6.164c1.966-.418 14.384-.211 14.384-.211l1.863-6.27h-26.182l-3.83 12.75.001-.105zm24.629 4.807h-25.975l-1.552 5.329h22.56c2.69-.313 3.208.104 3.415-.104l1.655-5.225h-.103zm-33.735-29.678h15.833l-2.276 8.047s4.967-4.075 8.485-5.539c3.519-1.254 11.383-2.508 11.383-2.508l25.664-.104-8.796 29.469c-1.449 5.016-3.208 8.256-4.243 9.823-.93 1.463-2.07 2.821-4.346 4.075-2.173 1.15-4.141 1.881-6.002 1.986-1.656.104-4.347.209-7.865.209h-24.732l-6.934 23.303c-.62 2.299-.931 3.447-.517 4.074.31.523 1.241 1.15 2.38 1.15l10.865-1.045-3.726 12.749h-12.21c-3.933 0-6.727-.104-8.693-.21-1.862-.208-3.83 0-5.175-1.044-1.138-1.045-2.896-2.403-2.794-3.763.104-1.254.621-3.344 1.45-6.27l22.249-74.402z" fill="#FEFEFE"/>
    <path d="m452.43 317.79-1.449 7.105c-.619 2.194-1.138 3.867-2.794 5.33-1.759 1.463-3.725 3.03-8.484 3.03l-8.796.418-.104 7.942c-.103 2.193.519 1.984.828 2.402.414.418.724.523 1.138.732l2.794-.21 8.384-.417-3.52 11.704h-9.624c-6.726 0-11.797-.21-13.35-1.463-1.655-1.046-1.862-2.3-1.862-4.599l.62-31.141h15.42l-.207 6.374h3.725c1.242 0 2.175-.104 2.691-.418s.828-.836 1.035-1.567l1.552-5.016h12.108l-.105-.206zm-219.37-156c-.517 2.508-10.451 48.592-10.451 48.592-2.174 9.3-3.726 15.989-8.9 20.273-3.001 2.508-6.52 3.657-10.555 3.657-6.52 0-10.245-3.239-10.866-9.404l-.104-2.09s1.966-12.436 1.966-12.54c0 0 10.349-42.009 12.212-47.548.103-.313.103-.522.103-.627-20.18.21-23.801 0-24.008-.313-.104.418-.621 3.03-.621 3.03l-10.556 47.34-.932 3.97-1.758 13.168c0 3.866.724 7.105 2.277 9.718 4.863 8.569 18.627 9.823 26.388 9.823 10.038 0 19.455-2.195 25.767-6.061 11.073-6.584 13.97-16.929 16.454-26.02l1.242-4.703s10.659-43.576 12.522-49.219c.103-.314.103-.523.207-.627-14.695.104-18.938 0-20.387-.314v-.105zm59.03 86.623c-7.141-.105-9.728-.105-18.11.313l-.311-.627c.724-3.24 1.552-6.374 2.173-9.614l1.035-4.389c1.552-6.792 3.001-14.839 3.208-17.242.207-1.463.62-5.12-3.519-5.12-1.759 0-3.518.835-5.38 1.671-1.036 3.658-3.002 13.899-4.037 18.497-2.07 9.823-2.173 10.972-3.104 15.78l-.621.626c-7.347-.104-9.934-.104-18.42.314l-.414-.732c1.449-5.852 2.794-11.704 4.14-17.556 3.518-15.78 4.45-21.84 5.38-29.887l.725-.418c8.279-1.149 10.245-1.463 19.248-3.239l.724.836-1.345 5.016c1.552-.94 3.001-1.881 4.553-2.613 4.243-2.09 8.9-2.717 11.487-2.717 3.932 0 8.279 1.15 10.038 5.748 1.656 4.075.62 9.091-1.656 19.019l-1.138 5.016c-2.277 11.077-2.69 13.062-3.933 20.586l-.827.627.104.105zm29.057.027c-4.346 0-7.14-.104-9.83 0-2.691 0-5.278.21-9.314.314l-.207-.314-.207-.418c1.138-4.18 1.656-5.643 2.277-7.106.517-1.463 1.034-2.926 2.07-7.21 1.241-5.539 2.069-9.405 2.586-12.854.621-3.24.932-6.06 1.346-9.3l.31-.209.31-.313c4.347-.627 7.038-1.045 9.832-1.463s5.691-.94 10.141-1.776l.207.418.103.418-2.482 10.345c-.828 3.449-1.656 6.897-2.38 10.346-1.554 7.315-2.277 10.032-2.587 12.017-.414 1.881-.519 2.822-1.14 6.584l-.414.313-.414.314-.207-.106zm45.942-25.675c-.31 1.881-1.966 8.883-4.139 11.809-1.553 2.194-3.312 3.553-5.382 3.553-.62 0-4.14 0-4.242-5.33 0-2.612.517-5.33 1.138-8.255 1.863-8.465 4.14-15.466 9.831-15.466 4.45 0 4.76 5.225 2.794 13.689zm18.73.836c2.483-11.077.518-16.302-1.862-19.437-3.726-4.807-10.348-6.374-17.178-6.374-4.141 0-13.867.418-21.525 7.524-5.484 5.12-8.071 12.122-9.52 18.81-1.554 6.792-3.312 19.019 7.864 23.617 3.414 1.463 8.382 1.88 11.59 1.88 8.176 0 16.558-2.298 22.87-8.986 4.863-5.434 7.036-13.585 7.864-17.034h-.103zm174.43 26.08c-8.693-.104-11.176-.104-19.146.314l-.517-.627c2.173-8.256 4.346-16.616 6.312-24.976 2.483-10.868 3.104-15.466 3.933-21.84l.62-.522c8.59-1.254 10.97-1.567 19.973-3.239l.207.731c-1.656 6.897-3.208 13.69-4.864 20.482-3.311 14.317-4.45 21.632-5.69 29.156l-.828.627v-.106z" fill="#FEFEFE"/>
    <path d="M547.75 224.16c-.414 1.776-2.07 8.882-4.243 11.808-1.449 2.09-4.967 3.449-6.933 3.449-.621 0-4.036 0-4.243-5.225 0-2.613.517-5.33 1.138-8.256 1.863-8.255 4.141-15.257 9.831-15.257 4.45 0 6.416 5.12 4.45 13.585v-.104zm17.075.836c2.482-11.077-7.658-.94-9.21-4.598-2.484-5.748-.933-17.243-10.866-21.109-3.829-1.568-12.832.418-20.49 7.524-5.381 5.016-8.072 12.017-9.52 18.705-1.554 6.688-3.312 19.02 7.76 23.304 3.52 1.567 6.727 1.985 9.935 1.776 11.178-.627 19.662-17.661 25.976-24.349 4.861-5.329 5.69 1.986 6.415-1.253zm-129.94 23.413c-7.14-.105-9.624-.105-18.006.313l-.311-.627c.725-3.24 1.553-6.374 2.276-9.614l.931-4.389c1.554-6.792 3.105-14.839 3.208-17.242.207-1.463.621-5.12-3.415-5.12-1.759 0-3.62.835-5.38 1.671-.932 3.658-3.002 13.899-4.037 18.497-1.966 9.823-2.173 10.972-3.104 15.78l-.621.626c-7.347-.104-9.934-.104-18.42.314l-.414-.732c1.449-5.852 2.794-11.704 4.14-17.556 3.519-15.78 4.347-21.84 5.38-29.887l.621-.418c8.28-1.149 10.35-1.463 19.248-3.239l.726.836-1.242 5.016c1.449-.94 3.001-1.881 4.45-2.613 4.243-2.09 8.899-2.717 11.485-2.717 3.934 0 8.177 1.15 10.038 5.748 1.656 4.075.519 9.091-1.759 19.019l-1.138 5.016c-2.38 11.077-2.69 13.062-3.934 20.586l-.826.627.104.105zm62.001-86.519-6.002.105c-15.523.209-21.732.104-24.215-.209-.207 1.15-.621 3.135-.621 3.135s-5.588 25.916-5.588 26.02c0 0-13.246 55.176-13.867 57.788 13.556-.209 19.041-.209 21.421.105.519-2.613 3.622-17.974 3.726-17.974 0 0 2.69-11.286 2.795-11.704 0 0 .826-1.15 1.654-1.672h1.242c11.694 0 24.836 0 35.186-7.628 7.036-5.225 11.797-13.063 13.97-22.468.517-2.299.931-5.016.931-7.837 0-3.658-.724-7.21-2.794-10.032-5.279-7.42-15.731-7.524-27.838-7.629zm7.761 27.066c-1.241 5.747-4.967 10.659-9.727 12.958-3.933 1.985-8.693 2.194-13.66 2.194h-3.208l.207-1.254s5.899-25.916 5.899-25.811l.206-1.359.104-1.045 2.38.21s12.211 1.044 12.418 1.044c4.759 1.881 6.83 6.688 5.381 13.063zm127.21 8.666-.723-.836c-8.797 1.776-10.453 2.09-18.525 3.24l-.619.626c0 .105-.104.21-.104.418v-.104c-6.002 14.107-5.9 11.077-10.762 22.154 0-.523 0-.836-.105-1.359l-1.242-24.035-.723-.836c-9.314 1.777-9.521 2.09-18.007 3.24l-.621.627c-.104.313-.104.627-.104.94l.104.105c1.035 5.538.828 4.284 1.863 12.958.517 4.284 1.138 8.569 1.655 12.749.828 7.106 1.346 10.554 2.381 21.318-5.797 9.613-7.142 13.271-12.729 21.734l.31.836c8.384-.312 10.246-.312 16.455-.312l1.346-1.568c4.656-10.135 40.256-71.79 40.256-71.79l-.106-.105zm-302.72 6.922c4.76-3.344 5.38-7.942 1.345-10.345-4.036-2.404-11.176-1.672-15.937 1.672-4.76 3.24-5.277 7.837-1.241 10.345 3.932 2.3 11.072 1.672 15.833-1.672z" fill="#FEFEFE"/>
    <path d="m590.33 270.9-6.935 12.019c-2.173 4.075-6.312 7.21-12.728 7.21l-11.073-.209 3.208-10.868h2.173c1.138 0 1.966-.104 2.587-.418.621-.209.933-.627 1.449-1.254l4.14-6.583h17.282l-.103.103z" fill="#FEFEFE"/>
</svg><svg fill="none" viewBox="0 0 24 24" id="user" xmlns="http://www.w3.org/2000/svg">
    <path d="M20 21v-2a4 4 0 0 0-4-4H8a4 4 0 0 0-4 4v2" stroke="#fff" stroke-width="2" stroke-linecap="round" stroke-linejoin="round"/>
    <path clip-rule="evenodd" d="M12 11a4 4 0 1 0 0-8 4 4 0 0 0 0 8Z" stroke="#fff" stroke-width="2" stroke-linecap="round" stroke-linejoin="round"/>
</svg><svg fill="none" viewBox="0 0 780 500" id="visa" xmlns="http://www.w3.org/2000/svg">
    <g clip-path="url(#bia)">
        <path d="M40 0h700c22.092 0 40 17.909 40 40v420c0 22.092-17.908 40-40 40H40c-22.091 0-40-17.908-40-40V40C0 17.909 17.909 0 40 0Z" fill="#1434CB"/>
        <path d="M489.823 143.111c-46.835 0-88.689 24.282-88.689 69.145 0 51.45 74.23 55.003 74.23 80.85 0 10.883-12.469 20.625-33.764 20.625-30.223 0-52.811-13.612-52.811-13.612l-9.666 45.272s26.022 11.498 60.569 11.498c51.206 0 91.498-25.474 91.498-71.105 0-54.365-74.538-57.813-74.538-81.803 0-8.526 10.235-17.867 31.47-17.867 23.959 0 43.506 9.9 43.506 9.9l9.459-43.725s-21.269-9.178-51.264-9.178Zm-428.494 3.3-1.134 6.6s19.704 3.607 37.45 10.803c22.85 8.25 24.477 13.054 28.326 27.972l41.934 161.7h56.213l86.601-207.075h-56.084l-55.646 140.791-22.707-119.341c-2.083-13.658-12.631-21.45-25.542-21.45H61.33Zm271.942 0-43.996 207.075h53.481l43.842-207.075h-53.327Zm298.283 0c-12.896 0-19.729 6.907-24.743 18.975l-78.353 188.1h56.084l10.851-31.35h68.327l6.598 31.35h49.487l-43.172-207.075h-45.079Zm7.294 55.945 16.625 77.705h-44.538l27.913-77.705Z" fill="#fff"/>
    </g>
    <defs>
        <clipPath id="bia">
            <path fill="#fff" d="M0 0h780v500H0z"/>
        </clipPath>
    </defs>
</svg><svg fill="none" viewBox="0 0 114 27" id="yookassa" xmlns="http://www.w3.org/2000/svg">
    <path d="M59.469 7.43h-3.682l-2.605 4.579H51.84L51.798 2.1h-3.485v17.895h3.485l.043-4.911h1.332l3.46 4.911h3.86l-4.51-6.509L59.47 7.43ZM85.846 13.324a9.248 9.248 0 0 0-2.28-1.068l-.77-.29-.205-.077c-.478-.18-.982-.367-.999-.854a.854.854 0 0 1 .376-.735c.252-.174.548-.274.854-.29a2.767 2.767 0 0 1 1.862.555l.094.06L86.64 8.48l-.094-.077a4.686 4.686 0 0 0-.751-.547 5.014 5.014 0 0 0-1.546-.572 5.706 5.706 0 0 0-2.375 0c-.757.1-1.475.394-2.084.854a3.766 3.766 0 0 0-1.418 2.511 3.614 3.614 0 0 0 .632 2.512 5.125 5.125 0 0 0 2.562 1.537l.154.052.35.12c1.265.426 1.623.597 1.828.853a.786.786 0 0 1 .154.445c0 .606-.743.854-1.247 1.008a2.621 2.621 0 0 1-2.033-.462 4.218 4.218 0 0 1-1.179-1.187c-.196.205-2.127 2.11-2.093 2.144l.06.085a6.483 6.483 0 0 0 3.69 2.29c.333.064.67.107 1.008.128h.35a5.305 5.305 0 0 0 3.212-1 3.904 3.904 0 0 0 1.393-1.794 3.512 3.512 0 0 0-.308-2.955 3.597 3.597 0 0 0-1.06-1.102ZM97.104 13.324a9.19 9.19 0 0 0-2.272-1.068l-.777-.29-.197-.077c-.487-.18-.982-.367-1.008-.854a.921.921 0 0 1 .385-.735c.252-.174.548-.274.854-.29a2.784 2.784 0 0 1 1.862.555l.085.06L97.9 8.48l-.086-.077a4.41 4.41 0 0 0-.76-.547 4.98 4.98 0 0 0-1.538-.572 5.74 5.74 0 0 0-2.383 0 4.493 4.493 0 0 0-2.084.854 3.758 3.758 0 0 0-1.435 2.503 3.562 3.562 0 0 0 .632 2.511 5.125 5.125 0 0 0 2.563 1.538l.145.05.35.12c1.273.428 1.632.598 1.837.855.098.127.15.284.145.444 0 .606-.735.854-1.239 1.008a2.64 2.64 0 0 1-2.041-.461 4.45 4.45 0 0 1-1.18-1.188c-.187.205-2.118 2.11-2.092 2.144l.069.086a6.484 6.484 0 0 0 3.69 2.289c.332.065.67.108 1.007.128h.35a5.304 5.304 0 0 0 3.212-1 3.903 3.903 0 0 0 1.393-1.793 3.51 3.51 0 0 0-.308-2.956 3.623 3.623 0 0 0-1.042-1.093ZM70.915 7.43v1.23h-.154a5.125 5.125 0 0 0-3.596-1.503 5.894 5.894 0 0 0-4.425 1.87 6.731 6.731 0 0 0-1.709 4.647 6.945 6.945 0 0 0 1.709 4.741 5.706 5.706 0 0 0 4.365 1.862 5.774 5.774 0 0 0 3.673-1.41h.136v1.103h3.622V7.43h-3.621Zm.179 6.313a4.109 4.109 0 0 1-.948 2.776 3.177 3.177 0 0 1-2.477 1.059 2.998 2.998 0 0 1-2.367-1.093 4.185 4.185 0 0 1-.922-2.81c-.03-.988.305-1.951.94-2.709a3.058 3.058 0 0 1 2.374-1.076 3.126 3.126 0 0 1 2.452 1.068c.647.78.984 1.772.948 2.785ZM110.309 7.43v1.23h-.153a5.126 5.126 0 0 0-3.588-1.503 5.929 5.929 0 0 0-4.433 1.87 6.729 6.729 0 0 0-1.708 4.647 6.94 6.94 0 0 0 1.708 4.741 5.696 5.696 0 0 0 4.365 1.862 5.777 5.777 0 0 0 3.673-1.41h.136v1.103h3.622V7.43h-3.622Zm.18 6.313a4.07 4.07 0 0 1-.948 2.776 3.178 3.178 0 0 1-2.477 1.059 2.994 2.994 0 0 1-2.367-1.093 4.185 4.185 0 0 1-.922-2.81 4.028 4.028 0 0 1 .94-2.709 3.057 3.057 0 0 1 2.374-1.076 3.129 3.129 0 0 1 2.452 1.068c.65.778.988 1.77.948 2.785Z" fill="#000"/>
    <path d="M24.523 0c-7.52 0-13.5 6.066-13.5 13.5 0 7.519 6.066 13.5 13.5 13.5 7.433 0 13.5-6.067 13.5-13.5 0-7.434-6.067-13.5-13.5-13.5Zm0 18.456c-2.735 0-5.042-2.307-5.042-5.041 0-2.735 2.307-5.042 5.041-5.042 2.735 0 5.042 2.307 5.042 5.042-.086 2.82-2.307 5.04-5.041 5.04Z" fill="url(#bja)"/>
    <path d="M10.937 3.845v19.652H6.152L0 3.845h10.937Z" fill="url(#bjb)"/>
    <defs>
        <linearGradient id="bja" x1="24.523" y1="0" x2="24.523" y2="27" gradientUnits="userSpaceOnUse">
            <stop stop-color="#0160D1"/>
            <stop offset="1" stop-color="#00479C"/>
        </linearGradient>
        <linearGradient id="bjb" x1="5.468" y1="3.845" x2="5.468" y2="23.497" gradientUnits="userSpaceOnUse">
            <stop stop-color="#0160D1"/>
            <stop offset="1" stop-color="#00479C"/>
        </linearGradient>
    </defs>
</svg></svg>