<?xml version="1.0" encoding="utf-8"?><svg viewBox="0 0 122.88 122.88" xmlns="http://www.w3.org/2000/svg" xmlns:xlink="http://www.w3.org/1999/xlink"><style>:root>svg{display:none}:root>svg:target{display:block}</style><svg fill="none" viewBox="0 0 61 61" id="approved" xmlns="http://www.w3.org/2000/svg">
    <g clip-path="url(#aaa)" fill="#000">
        <path d="m37.4 24.834-9.166 8.656-4.399-4.525a1.268 1.268 0 0 0-1.818 1.767l5.276 5.416a1.29 1.29 0 0 0 1.793.037l10.08-9.508a1.267 1.267 0 0 0 .051-1.793c-.49-.51-1.3-.532-1.818-.05Z"/>
        <path d="M30.598 11.511c-10.474 0-18.992 8.517-18.992 18.992 0 10.475 8.518 18.993 18.992 18.993 10.476 0 18.993-8.518 18.993-18.993 0-10.475-8.517-18.992-18.993-18.992Zm0 35.442c-9.076 0-16.45-7.386-16.45-16.45s7.374-16.45 16.45-16.45c9.086 0 16.45 7.365 16.45 16.45 0 9.085-7.364 16.45-16.45 16.45Z"/>
        <path d="m56.735 23.511.42-7.538a1.268 1.268 0 0 0-.7-1.208l-6.712-3.394L46.35 4.66a1.29 1.29 0 0 0-1.207-.7l-7.552.408L31.297.21a1.27 1.27 0 0 0-1.398 0l-6.292 4.157-7.538-.42a1.266 1.266 0 0 0-1.208.7l-3.395 6.712-6.711 3.394c-.45.23-.723.702-.7 1.207l.42 7.539-4.157 6.293a1.27 1.27 0 0 0 0 1.398l4.144 6.305-.42 7.538c-.029.506.246.982.7 1.208l6.712 3.394 3.394 6.712c.23.45.703.723 1.208.7l7.538-.42 6.293 4.157c.421.288.976.288 1.398 0l6.293-4.157 7.538.42c.506.029.98-.246 1.208-.7l3.394-6.712 6.712-3.394c.45-.23.723-.703.7-1.208l-.42-7.538 4.157-6.293a1.27 1.27 0 0 0 0-1.398l-4.132-6.293ZM54.37 36.453a1.193 1.193 0 0 0-.203.775l.394 7.131-6.343 3.204a1.254 1.254 0 0 0-.56.56l-3.203 6.343-7.131-.394a1.39 1.39 0 0 0-.776.203l-5.95 3.928-5.949-3.928a1.259 1.259 0 0 0-.699-.216h-.063l-7.132.394-3.204-6.343a1.251 1.251 0 0 0-.56-.56l-6.355-3.19.394-7.132a1.39 1.39 0 0 0-.204-.776l-3.928-5.949 3.928-5.95a1.19 1.19 0 0 0 .204-.774l-.394-7.132 6.343-3.204c.242-.12.438-.317.56-.559l3.203-6.344 7.132.395c.272.01.542-.061.775-.204l5.95-3.928 5.949 3.928c.227.155.501.228.776.204l7.13-.395 3.205 6.344c.12.242.317.438.559.56l6.343 3.203-.394 7.132c-.01.272.061.542.203.775l3.929 5.95-3.929 5.948Z"/>
    </g>
    <defs>
        <clipPath id="aaa">
            <path fill="#fff" d="M0 0h61v61H0z"/>
        </clipPath>
    </defs>
</svg><svg fill="none" viewBox="0 0 16 29" id="arrow-bottom" xmlns="http://www.w3.org/2000/svg">
    <path d="M8 0v28m0 0-7-7.19M8 28l7-7.19" stroke="#6E9C9F"/>
</svg><svg fill="none" viewBox="0 0 21 11" id="arrow-catalog" xmlns="http://www.w3.org/2000/svg">
    <path d="M0 5.5h20m0 0-5.135 5M20 5.5l-5.135-5" stroke="#000"/>
</svg><svg fill="none" viewBox="0 0 18 18" id="arrow-down" xmlns="http://www.w3.org/2000/svg">
    <g clip-path="url(#ada)">
        <path d="M4 7.496c0 .128.023.254.069.37a.853.853 0 0 0 .195.298l4.286 4.141a.646.646 0 0 0 .453.195.646.646 0 0 0 .454-.195l4.285-4.287a.922.922 0 0 0 .255-.58.978.978 0 0 0-.162-.628.688.688 0 0 0-.485-.306.638.638 0 0 0-.522.194L9 10.53 5.17 6.827a.662.662 0 0 0-.368-.192.61.61 0 0 0-.396.076.777.777 0 0 0-.299.32.99.99 0 0 0-.108.465Z" fill="#000"/>
    </g>
    <defs>
        <clipPath id="ada">
            <path fill="#000" transform="matrix(0 -1 -1 0 18 18)" d="M0 0h18v18H0z"/>
        </clipPath>
    </defs>
</svg><svg fill="none" viewBox="0 0 32 24" id="arrow-right" xmlns="http://www.w3.org/2000/svg">
    <path d="M0 12h31m0 0L20.186 1M31 12 20.186 23" stroke="#fff"/>
</svg><svg data-name="Layer 1" viewBox="0 0 122.88 122.88" id="cancel" xmlns="http://www.w3.org/2000/svg">
    <path d="M61.44 0A61.44 61.44 0 1 1 0 61.44 61.44 61.44 0 0 1 61.44 0Zm13.14 36.8c1.74-1.77 2.83-3.18 5-1l7 7.13c2.29 2.26 2.17 3.58 0 5.69L73.33 61.83l12.75 12.75c1.77 1.74 3.18 2.83 1 5l-7.13 7c-2.26 2.29-3.58 2.17-5.68 0L61.44 73.72 48.63 86.53c-2.1 2.15-3.42 2.27-5.68 0l-7.13-7c-2.2-2.15-.79-3.24 1-5l12.73-12.7-13.2-13.19c-2.15-2.11-2.27-3.43 0-5.69l7-7.13c2.15-2.2 3.24-.79 5 1l13.09 13.12L74.58 36.8Z" style="fill:#f44336;fill-rule:evenodd"/>
</svg><svg fill="none" viewBox="0 0 16 16" id="clock" xmlns="http://www.w3.org/2000/svg">
    <path clip-rule="evenodd" d="M8 14.667A6.667 6.667 0 1 0 8 1.333a6.667 6.667 0 0 0 0 13.334Z" stroke="#7E9BBD" stroke-width="2" stroke-linecap="round" stroke-linejoin="round"/>
    <path d="M8 4v4l2 2" stroke="#7E9BBD" stroke-width="2" stroke-linecap="round" stroke-linejoin="round"/>
</svg><svg fill="none" viewBox="0 0 14 8" id="control-down" xmlns="http://www.w3.org/2000/svg">
    <path d="m1 1 6 6 6-6" stroke="#A0BBCC" stroke-width="2" stroke-linecap="round" stroke-linejoin="round"/>
</svg><svg fill="none" viewBox="0 0 14 8" id="control-up" xmlns="http://www.w3.org/2000/svg">
    <path d="M13 7 7 1 1 7" stroke="#A0BBCC" stroke-width="2" stroke-linecap="round" stroke-linejoin="round"/>
</svg><svg fill="none" viewBox="0 0 16 16" id="delete" xmlns="http://www.w3.org/2000/svg">
    <path d="m1 1 14.5 14.5m0-14.5L1 15.5" stroke="#000"/>
</svg><svg viewBox="3 3 16 16" id="done" xmlns="http://www.w3.org/2000/svg">
    <g transform="translate(-10.994 -2071.68) scale(1.99997)" fill="#da4453">
        <rect y="1037.36" x="7" height="8" width="8" fill="#32c671" rx="4"/>
        <path d="m13.577 1040.285-.483-.483a.329.329 0 0 0-.241-.1.329.329 0 0 0-.242.1l-2.33 2.334-1.045-1.048a.329.329 0 0 0-.241-.1.329.329 0 0 0-.242.1l-.483.483a.329.329 0 0 0-.1.242c0 .094.034.175.1.241l1.286 1.286.483.483c.066.067.147.1.242.1a.329.329 0 0 0 .241-.1l.483-.483 2.572-2.572a.33.33 0 0 0 .1-.241.329.329 0 0 0-.1-.242" fill="#fff"/>
    </g>
</svg><svg fill="none" viewBox="0 0 24 24" id="edit" xmlns="http://www.w3.org/2000/svg">
    <path clip-rule="evenodd" d="m14 2 4 4L7 17H3v-4L14 2v0Z" stroke="#fff" stroke-width="2" stroke-linecap="round" stroke-linejoin="round"/>
    <path d="M3 22h18" stroke="#fff" stroke-width="2" stroke-linecap="round" stroke-linejoin="round"/>
</svg><svg fill="none" viewBox="0 0 21 21" id="facebook" xmlns="http://www.w3.org/2000/svg">
    <g clip-path="url(#ama)">
        <path d="M18.54 0H2.46A2.464 2.464 0 0 0 0 2.46v16.08A2.464 2.464 0 0 0 2.46 21h16.08A2.464 2.464 0 0 0 21 18.54V2.46A2.464 2.464 0 0 0 18.54 0Zm.82 18.54c0 .451-.369.82-.82.82H13.7V13.37h2.625l.306-2.543H13.7V8.08c0-.701.53-1.23 1.23-1.23h1.846V4.47c-.485-.068-1.422-.163-1.845-.163-.957 0-1.916.403-2.631 1.107-.737.725-1.143 1.674-1.143 2.673v2.741H8.49v2.543h2.666v5.988H2.461a.821.821 0 0 1-.82-.82V2.461c0-.452.368-.82.82-.82h16.078c.452 0 .82.368.82.82v16.078Z" fill="#000"/>
    </g>
    <defs>
        <clipPath id="ama">
            <path fill="#fff" d="M0 0h21v21H0z"/>
        </clipPath>
    </defs>
</svg><svg fill="none" viewBox="0 0 20 20" id="favorite" xmlns="http://www.w3.org/2000/svg">
    <path d="m9.223 17.115-.001-.002c-2.595-2.353-4.668-4.235-6.104-5.99C1.693 9.38 1 7.885 1 6.323c0-2.527 1.972-4.5 4.5-4.5 1.437 0 2.832.674 3.739 1.739l.761.894.761-.894c.907-1.065 2.302-1.739 3.739-1.739 2.528 0 4.5 1.972 4.5 4.5 0 1.562-.693 3.057-2.118 4.8-1.436 1.757-3.509 3.641-6.103 6h-.002l-.774.7-.78-.71Z" fill="#fff" stroke="#0C0C0C" stroke-width="2"/>
</svg><svg fill="none" viewBox="0 0 24 24" id="folder" xmlns="http://www.w3.org/2000/svg">
    <path clip-rule="evenodd" d="M22 19a2 2 0 0 1-2 2H4a2 2 0 0 1-2-2V5a2 2 0 0 1 2-2h5l2 3h9a2 2 0 0 1 2 2v11Z" stroke="#fff" stroke-width="2" stroke-linecap="round" stroke-linejoin="round"/>
</svg><svg fill="none" viewBox="0 0 63 63" id="hand" xmlns="http://www.w3.org/2000/svg">
    <path d="M24.777 43.79c-.336 0-.672-.128-.929-.383L6.216 25.772a5.257 5.257 0 0 1 0-7.426 5.258 5.258 0 0 1 7.423 0l15.78 15.779a1.313 1.313 0 0 1-1.856 1.856l-15.78-15.779a2.634 2.634 0 0 0-3.711 0 2.618 2.618 0 0 0-.77 1.856c0 .703.274 1.362.77 1.858l17.635 17.632a1.313 1.313 0 0 1-.93 2.242Z" fill="#000"/>
    <path d="M34.06 30.797c-.337 0-.673-.13-.93-.384L15.498 12.778a2.625 2.625 0 1 0-3.714 3.712l1.855 1.856a1.313 1.313 0 0 1-1.855 1.856l-1.856-1.856a5.214 5.214 0 0 1-1.538-3.712c0-1.401.546-2.72 1.538-3.711 1.982-1.982 5.439-1.988 7.426 0l17.632 17.634a1.313 1.313 0 0 1-.927 2.24Z" fill="#000"/>
    <path d="M39.63 25.229c-.336 0-.672-.129-.93-.383L24.777 10.923a2.622 2.622 0 0 0-3.711 0 2.627 2.627 0 0 0 0 3.711 1.313 1.313 0 0 1-1.856 1.856 5.258 5.258 0 0 1 0-7.423 5.258 5.258 0 0 1 7.423 0L40.556 22.99a1.313 1.313 0 0 1-.926 2.239Z" fill="#000"/>
    <path d="M38.196 59.467c-.884 0-1.78-.1-2.667-.302l-22.102-5.066a5.123 5.123 0 0 1-2.57-1.413 5.221 5.221 0 0 1-1.54-3.711c0-1.402.548-2.72 1.54-3.712a5.12 5.12 0 0 1 2.407-1.37c.026-.01.053-.016.079-.024l11.13-2.67a1.308 1.308 0 0 1 1.583.972 1.316 1.316 0 0 1-.972 1.582l-11.053 2.652-.105.029a2.488 2.488 0 0 0-1.213.687 2.61 2.61 0 0 0-.772 1.856c0 .701.273 1.36.772 1.856a2.547 2.547 0 0 0 1.268.704l22.136 5.074a9.13 9.13 0 0 0 8.55-2.46l10.741-10.744A9.128 9.128 0 0 0 58.1 36.91c0-2.454-.955-4.76-2.69-6.497L32.206 7.211a2.622 2.622 0 0 0-3.712 0 2.627 2.627 0 0 0 0 3.712 1.313 1.313 0 0 1-1.855 1.855 5.258 5.258 0 0 1 0-7.423 5.258 5.258 0 0 1 7.423 0l23.202 23.202a11.72 11.72 0 0 1 3.46 8.353 11.73 11.73 0 0 1-3.46 8.353L46.523 56.007a11.765 11.765 0 0 1-8.327 3.46Z" fill="#000"/>
</svg><svg fill="none" viewBox="0 0 22 23" id="instagram" xmlns="http://www.w3.org/2000/svg">
    <g clip-path="url(#aqa)" fill="#000">
        <path d="M15.61.5H6.39A6.398 6.398 0 0 0 0 6.89v9.22a6.398 6.398 0 0 0 6.39 6.39h9.22A6.398 6.398 0 0 0 22 16.11V6.89A6.398 6.398 0 0 0 15.61.5Zm4.671 15.61a4.677 4.677 0 0 1-4.672 4.671H6.391a4.677 4.677 0 0 1-4.672-4.672V6.891A4.677 4.677 0 0 1 6.39 2.219h9.218a4.677 4.677 0 0 1 4.672 4.672v9.218Z"/>
        <path d="M11 5.57c-3.27 0-5.93 2.66-5.93 5.93 0 3.27 2.66 5.93 5.93 5.93 3.27 0 5.93-2.66 5.93-5.93 0-3.27-2.66-5.93-5.93-5.93Zm0 10.14a4.216 4.216 0 0 1-4.21-4.21A4.216 4.216 0 0 1 11 7.29a4.216 4.216 0 0 1 4.21 4.21A4.216 4.216 0 0 1 11 15.71ZM17.016 6.344a.86.86 0 1 0 0-1.72.86.86 0 0 0 0 1.72Z"/>
    </g>
    <defs>
        <clipPath id="aqa">
            <path fill="#fff" transform="translate(0 .5)" d="M0 0h22v22H0z"/>
        </clipPath>
    </defs>
</svg><svg fill="none" viewBox="0 0 25 25" id="logo" xmlns="http://www.w3.org/2000/svg">
    <g clip-path="url(#ara)">
        <path d="m21.517 22.65-.358-1.672a28.3 28.3 0 0 0-4.02-9.625V8.64a3.659 3.659 0 0 0 1.465-2.928V4.248a.732.732 0 0 0-.733-.732h-.732V.732a.733.733 0 0 0-1.465 0v2.791A4.15 4.15 0 0 0 12.5 5.315a4.15 4.15 0 0 0-3.174-1.792V.733a.732.732 0 0 0-1.465 0v2.783H7.13a.732.732 0 0 0-.732.732v1.465c0 1.195.576 2.259 1.464 2.928v2.712a28.3 28.3 0 0 0-4.02 9.625l-.358 1.671a.732.732 0 0 0 .466.842A24.91 24.91 0 0 0 12.5 25a24.91 24.91 0 0 0 8.552-1.51.732.732 0 0 0 .465-.84ZM15.918 4.98h1.22v.733a2.2 2.2 0 0 1-2.197 2.197h-1.709v-.244a2.689 2.689 0 0 1 2.686-2.686Zm-8.057 0h1.221a2.689 2.689 0 0 1 2.686 2.686v.244h-1.71a2.2 2.2 0 0 1-2.197-2.197V4.98Zm2.198 4.395h4.883c.25 0 .495-.025.732-.074v1.539H9.326V9.3c.237.049.482.074.733.074Zm2.441 14.16c-2.541 0-5.044-.407-7.45-1.21l.224-1.04a26.84 26.84 0 0 1 3.715-8.98h7.022a26.84 26.84 0 0 1 3.716 8.98l.222 1.04a23.444 23.444 0 0 1-7.449 1.21Z" fill="#000"/>
    </g>
    <defs>
        <clipPath id="ara">
            <path fill="#fff" d="M0 0h25v25H0z"/>
        </clipPath>
    </defs>
</svg><svg fill="none" viewBox="0 0 24 24" id="mail" xmlns="http://www.w3.org/2000/svg">
    <path clip-rule="evenodd" d="M4 4h16c1.1 0 2 .9 2 2v12c0 1.1-.9 2-2 2H4c-1.1 0-2-.9-2-2V6c0-1.1.9-2 2-2Z" stroke="#fff" stroke-width="2" stroke-linecap="round" stroke-linejoin="round"/>
    <path d="m22 6-10 7L2 6" stroke="#fff" stroke-width="2" stroke-linecap="round" stroke-linejoin="round"/>
</svg><svg fill="none" viewBox="0 0 24 24" id="message-square" xmlns="http://www.w3.org/2000/svg">
    <path clip-rule="evenodd" d="M21 15a2 2 0 0 1-2 2H7l-4 4V5a2 2 0 0 1 2-2h14a2 2 0 0 1 2 2v10Z" stroke="#fff" stroke-width="2" stroke-linecap="round" stroke-linejoin="round"/>
</svg><svg fill="none" viewBox="0 0 17 17" id="phone" xmlns="http://www.w3.org/2000/svg">
    <g clip-path="url(#aua)" fill="#6E9C9F">
        <path d="M2.252 4.816a3.856 3.856 0 0 0 0 5.448l.798-.798a2.727 2.727 0 0 1 0-3.852 2.727 2.727 0 0 1 3.852 0l.797-.798a3.856 3.856 0 0 0-5.447 0Z"/>
        <path d="M3.841 6.391a1.623 1.623 0 0 0 0 2.293l.798-.797a.49.49 0 0 1 0-.698.49.49 0 0 1 .698 0l.797-.798a1.623 1.623 0 0 0-2.293 0ZM13.748 4.435l-1.893-1.887-3.932 3.926 1.525 1.574c-.256.453-.81 1.322-1.755 2.267a10.919 10.919 0 0 1-2.277 1.764l-1.543-1.523-3.87 3.847 1.882 1.895c.72.72 1.815.907 2.725.465 1.39-.675 3.485-1.92 5.584-4.019 2.1-2.098 3.344-4.195 4.018-5.584.16-.329.238-.682.238-1.033 0-.62-.242-1.232-.702-1.692Zm-.55 2.232c-.637 1.311-1.814 3.292-3.801 5.28-1.988 1.988-3.969 3.164-5.28 3.8a1.255 1.255 0 0 1-1.433-.245l-1.087-1.094 2.278-2.264L5.19 13.44l.352-.156c.057-.026 1.417-.641 2.95-2.173 1.532-1.533 2.135-2.881 2.16-2.938l.152-.347-1.297-1.34 2.349-2.345 1.095 1.091c.38.38.479.957.247 1.434Z"/>
    </g>
    <defs>
        <clipPath id="aua">
            <path fill="#fff" d="M0 0h17v17H0z"/>
        </clipPath>
    </defs>
</svg><svg fill="none" viewBox="0 0 78 78" id="settings" xmlns="http://www.w3.org/2000/svg">
    <path d="m63.661 50.349-5.895-4.192c.99-3.641.984-7.48-.017-11.119l5.915-4.14-4.722-8.17-6.578 3.009a21.073 21.073 0 0 0-9.64-5.545L42.098 13h-9.444l-.627 7.192a21.07 21.07 0 0 0-9.637 5.548l-6.58-3.01-4.72 8.171 5.915 4.14a21.07 21.07 0 0 0-.02 11.116l-5.895 4.192 4.72 8.132 6.58-3.013a21.07 21.07 0 0 0 9.637 5.544l.627 7.192h9.444l.628-7.192a21.073 21.073 0 0 0 9.636-5.544l6.581 3.012 4.722-8.128-.003-.003ZM43.891 9.701a1.625 1.625 0 0 1 1.625 1.55l.579 6.614a24.212 24.212 0 0 1 6.64 3.829l6.012-2.805a1.625 1.625 0 0 1 2.152.634L67.415 30.8a1.625 1.625 0 0 1-.527 2.181l-5.44 3.809c.416 2.593.403 5.177.003 7.667l5.437 3.802a1.625 1.625 0 0 1 .527 2.184L60.899 61.68a1.625 1.625 0 0 1-2.152.633l-6.012-2.804a24.207 24.207 0 0 1-6.64 3.831l-.579 6.614a1.625 1.625 0 0 1-1.625 1.547H30.86a1.625 1.625 0 0 1-1.625-1.547l-.579-6.614a24.222 24.222 0 0 1-6.64-3.831l-6.012 2.804a1.625 1.625 0 0 1-2.155-.63L7.335 50.44a1.625 1.625 0 0 1 .527-2.18l5.437-3.806a24.21 24.21 0 0 1 0-7.667L7.865 32.98a1.625 1.625 0 0 1-.526-2.178l6.506-11.28A1.625 1.625 0 0 1 16 18.889l6.012 2.805a24.212 24.212 0 0 1 6.64-3.829l.579-6.613a1.625 1.625 0 0 1 1.625-1.55H43.89ZM37.375 29.25a11.375 11.375 0 1 1 0 22.75 11.375 11.375 0 0 1 0-22.75Zm0 3.25a8.125 8.125 0 1 0 0 16.25 8.125 8.125 0 0 0 0-16.25Z" fill="#000"/>
</svg><svg fill="none" viewBox="0 0 24 24" id="shopping-bag" xmlns="http://www.w3.org/2000/svg">
    <g clip-path="url(#awa)" fill="#000">
        <path d="M23.845 8.224a.533.533 0 0 0-.444-.148h-6.367V5.263a5.034 5.034 0 1 0-10.068 0v2.813H.599c-.178 0-.355 0-.444.148a.504.504 0 0 0-.148.445l2.22 12.141a3.613 3.613 0 0 0 3.495 2.961h12.556a3.642 3.642 0 0 0 3.494-2.99l2.221-12.112a.503.503 0 0 0-.148-.445ZM8.15 5.263a3.85 3.85 0 0 1 7.7 0v2.813h-7.7V5.263Zm12.438 15.37a2.37 2.37 0 0 1-2.31 1.954H5.722a2.37 2.37 0 0 1-2.31-1.955L1.31 9.261h21.38l-2.102 11.371Z"/>
        <path d="M16.442 15.035a.592.592 0 0 0 .592-.592v-1.777a.592.592 0 0 0-1.184 0v1.777c0 .327.265.592.592.592ZM7.558 15.035a.592.592 0 0 0 .592-.592v-1.777a.592.592 0 1 0-1.184 0v1.777c0 .327.265.592.592.592Z"/>
    </g>
    <defs>
        <clipPath id="awa">
            <path fill="#fff" d="M0 0h24v24H0z"/>
        </clipPath>
    </defs>
</svg><svg fill="none" viewBox="0 0 29 16" id="slider-arrow" xmlns="http://www.w3.org/2000/svg">
    <path d="M29 8H1m0 0 7.19-7M1 8l7.19 7" stroke="#858585"/>
</svg><svg fill="none" viewBox="0 0 72 84" id="success" xmlns="http://www.w3.org/2000/svg">
    <path fill-rule="evenodd" clip-rule="evenodd" d="M53.122 30.876a2.999 2.999 0 0 1 0 4.248l-18 18a2.998 2.998 0 0 1-4.248 0l-9-9a3.004 3.004 0 0 1 4.248-4.248l6.876 6.882 15.876-15.882a3 3 0 0 1 4.248 0Z" fill="#6E9C9F"/>
    <path fill-rule="evenodd" clip-rule="evenodd" d="M12 0h48a12 12 0 0 1 12 12v60a12 12 0 0 1-12 12H12A12 12 0 0 1 0 72V12A12 12 0 0 1 12 0Zm0 6a6 6 0 0 0-6 6v60a6 6 0 0 0 6 6h48a6 6 0 0 0 6-6V12a6 6 0 0 0-6-6H12Z" fill="#6E9C9F"/>
</svg><svg fill="none" viewBox="0 0 24 24" id="target" xmlns="http://www.w3.org/2000/svg">
    <path clip-rule="evenodd" d="M12 22c5.523 0 10-4.477 10-10S17.523 2 12 2 2 6.477 2 12s4.477 10 10 10Z" stroke="#fff" stroke-width="2" stroke-linecap="round" stroke-linejoin="round"/>
    <path clip-rule="evenodd" d="M12 18a6 6 0 1 0 0-12 6 6 0 0 0 0 12Z" stroke="#fff" stroke-width="2" stroke-linecap="round" stroke-linejoin="round"/>
    <path clip-rule="evenodd" d="M12 14a2 2 0 1 0 0-4 2 2 0 0 0 0 4Z" stroke="#fff" stroke-width="2" stroke-linecap="round" stroke-linejoin="round"/>
</svg><svg fill="none" viewBox="0 0 23 23" id="twitter" xmlns="http://www.w3.org/2000/svg">
    <path d="m20.271 5.165-.011-.044a4.867 4.867 0 0 0 2.111-2.65 9.815 9.815 0 0 1-3.055 1.168c-.86-.918-2.01-1.483-3.369-1.483-2.604 0-4.761 2.109-4.761 4.717 0 .371.052.735.134 1.078v.045C7.44 7.774 3.924 5.8 1.617 2.965c-.405.697-.629 1.694-.629 2.56 0 1.348.8 3.153 2.067 3.998v.09c-.756-.03-1.53-.551-2.157-.898 0 .02.028.045.028.066 0 2.289 1.677 4.263 3.836 4.696-.376.1-.906.18-1.303.18-.305 0-.61-.08-.898-.136.6 1.877 2.335 3.1 4.402 3.1v.045c-1.609 1.247-3.647 2.111-5.84 2.111-.38 0-.853-.045-1.123-.09 2.086 1.34 4.566 2.157 7.232 2.157 8.678 0 13.432-7.143 13.432-13.387v-.629c.923-.667 1.705-1.567 2.336-2.516 0 0-1.656.785-2.729.853Zm-1.404 2.292c0 1.348-.264 2.764-.764 4.094a11.977 11.977 0 0 1-2.246 3.75c-1.514 1.709-4.239 3.746-8.625 3.746-.128 0-.257-.002-.386-.007.424-.245.83-.519 1.218-.82l.696-.539v-2.857l-.74-.008a1.477 1.477 0 0 1-1.461-1.477v-1.47l-.972-.219a.943.943 0 0 1-.735-.92V9.48l-.023-.916-.799-.534a3.666 3.666 0 0 1-.88-1.154c2.357 1.72 5.158 2.749 8.068 2.915l1.9.109v-2.16l-.05-.207a2.857 2.857 0 0 1-.086-.659c0-.774.31-1.504.87-2.057a2.968 2.968 0 0 1 2.095-.863c.796 0 1.49.308 2.06.915l.458.489.055.214.012.044.335 1.298v.544Z" fill="#000"/>
</svg><svg fill="none" viewBox="0 0 24 24" id="user" xmlns="http://www.w3.org/2000/svg">
    <path d="M20 21v-2a4 4 0 0 0-4-4H8a4 4 0 0 0-4 4v2" stroke="#fff" stroke-width="2" stroke-linecap="round" stroke-linejoin="round"/>
    <path clip-rule="evenodd" d="M12 11a4 4 0 1 0 0-8 4 4 0 0 0 0 8Z" stroke="#fff" stroke-width="2" stroke-linecap="round" stroke-linejoin="round"/>
</svg><svg fill="none" viewBox="0 0 114 27" id="yookassa" xmlns="http://www.w3.org/2000/svg">
    <path d="M59.469 7.43h-3.682l-2.605 4.579H51.84L51.798 2.1h-3.485v17.895h3.485l.043-4.911h1.332l3.46 4.911h3.86l-4.51-6.509L59.47 7.43ZM85.846 13.324a9.248 9.248 0 0 0-2.28-1.068l-.77-.29-.205-.077c-.478-.18-.982-.367-.999-.854a.854.854 0 0 1 .376-.735c.252-.174.548-.274.854-.29a2.767 2.767 0 0 1 1.862.555l.094.06L86.64 8.48l-.094-.077a4.686 4.686 0 0 0-.751-.547 5.014 5.014 0 0 0-1.546-.572 5.706 5.706 0 0 0-2.375 0c-.757.1-1.475.394-2.084.854a3.766 3.766 0 0 0-1.418 2.511 3.614 3.614 0 0 0 .632 2.512 5.125 5.125 0 0 0 2.562 1.537l.154.052.35.12c1.265.426 1.623.597 1.828.853a.786.786 0 0 1 .154.445c0 .606-.743.854-1.247 1.008a2.621 2.621 0 0 1-2.033-.462 4.218 4.218 0 0 1-1.179-1.187c-.196.205-2.127 2.11-2.093 2.144l.06.085a6.483 6.483 0 0 0 3.69 2.29c.333.064.67.107 1.008.128h.35a5.305 5.305 0 0 0 3.212-1 3.904 3.904 0 0 0 1.393-1.794 3.512 3.512 0 0 0-.308-2.955 3.597 3.597 0 0 0-1.06-1.102ZM97.104 13.324a9.19 9.19 0 0 0-2.272-1.068l-.777-.29-.197-.077c-.487-.18-.982-.367-1.008-.854a.921.921 0 0 1 .385-.735c.252-.174.548-.274.854-.29a2.784 2.784 0 0 1 1.862.555l.085.06L97.9 8.48l-.086-.077a4.41 4.41 0 0 0-.76-.547 4.98 4.98 0 0 0-1.538-.572 5.74 5.74 0 0 0-2.383 0 4.493 4.493 0 0 0-2.084.854 3.758 3.758 0 0 0-1.435 2.503 3.562 3.562 0 0 0 .632 2.511 5.125 5.125 0 0 0 2.563 1.538l.145.05.35.12c1.273.428 1.632.598 1.837.855.098.127.15.284.145.444 0 .606-.735.854-1.239 1.008a2.64 2.64 0 0 1-2.041-.461 4.45 4.45 0 0 1-1.18-1.188c-.187.205-2.118 2.11-2.092 2.144l.069.086a6.484 6.484 0 0 0 3.69 2.289c.332.065.67.108 1.007.128h.35a5.304 5.304 0 0 0 3.212-1 3.903 3.903 0 0 0 1.393-1.793 3.51 3.51 0 0 0-.308-2.956 3.623 3.623 0 0 0-1.042-1.093ZM70.915 7.43v1.23h-.154a5.125 5.125 0 0 0-3.596-1.503 5.894 5.894 0 0 0-4.425 1.87 6.731 6.731 0 0 0-1.709 4.647 6.945 6.945 0 0 0 1.709 4.741 5.706 5.706 0 0 0 4.365 1.862 5.774 5.774 0 0 0 3.673-1.41h.136v1.103h3.622V7.43h-3.621Zm.179 6.313a4.109 4.109 0 0 1-.948 2.776 3.177 3.177 0 0 1-2.477 1.059 2.998 2.998 0 0 1-2.367-1.093 4.185 4.185 0 0 1-.922-2.81c-.03-.988.305-1.951.94-2.709a3.058 3.058 0 0 1 2.374-1.076 3.126 3.126 0 0 1 2.452 1.068c.647.78.984 1.772.948 2.785ZM110.309 7.43v1.23h-.153a5.126 5.126 0 0 0-3.588-1.503 5.929 5.929 0 0 0-4.433 1.87 6.729 6.729 0 0 0-1.708 4.647 6.94 6.94 0 0 0 1.708 4.741 5.696 5.696 0 0 0 4.365 1.862 5.777 5.777 0 0 0 3.673-1.41h.136v1.103h3.622V7.43h-3.622Zm.18 6.313a4.07 4.07 0 0 1-.948 2.776 3.178 3.178 0 0 1-2.477 1.059 2.994 2.994 0 0 1-2.367-1.093 4.185 4.185 0 0 1-.922-2.81 4.028 4.028 0 0 1 .94-2.709 3.057 3.057 0 0 1 2.374-1.076 3.129 3.129 0 0 1 2.452 1.068c.65.778.988 1.77.948 2.785Z" fill="#000"/>
    <path d="M24.523 0c-7.52 0-13.5 6.066-13.5 13.5 0 7.519 6.066 13.5 13.5 13.5 7.433 0 13.5-6.067 13.5-13.5 0-7.434-6.067-13.5-13.5-13.5Zm0 18.456c-2.735 0-5.042-2.307-5.042-5.041 0-2.735 2.307-5.042 5.041-5.042 2.735 0 5.042 2.307 5.042 5.042-.086 2.82-2.307 5.04-5.041 5.04Z" fill="url(#bca)"/>
    <path d="M10.937 3.845v19.652H6.152L0 3.845h10.937Z" fill="url(#bcb)"/>
    <defs>
        <linearGradient id="bca" x1="24.523" y1="0" x2="24.523" y2="27" gradientUnits="userSpaceOnUse">
            <stop stop-color="#0160D1"/>
            <stop offset="1" stop-color="#00479C"/>
        </linearGradient>
        <linearGradient id="bcb" x1="5.468" y1="3.845" x2="5.468" y2="23.497" gradientUnits="userSpaceOnUse">
            <stop stop-color="#0160D1"/>
            <stop offset="1" stop-color="#00479C"/>
        </linearGradient>
    </defs>
</svg></svg>