<?xml version="1.0" encoding="utf-8"?><svg xmlns="http://www.w3.org/2000/svg" xmlns:xlink="http://www.w3.org/1999/xlink"><symbol viewBox="0 0 61 61" id="approved" xmlns="http://www.w3.org/2000/svg">
    <g clip-path="url(#aaclip0_60246_367)">
        <path d="M37.3994 24.8337L28.2341 33.4905L23.8355 28.9652C23.3478 28.4632 22.5449 28.4518 22.0433 28.9394C21.5413 29.4276 21.5299 30.23 22.0175 30.7321L27.2931 36.1477C27.7832 36.6408 28.5753 36.6577 29.0858 36.1854L39.1667 26.677C39.4115 26.4461 39.5545 26.1273 39.564 25.7911C39.5734 25.455 39.4488 25.1287 39.2174 24.8844C38.7267 24.3744 37.9178 24.3521 37.3994 24.8337Z"/>
        <path d="M30.5983 11.5111C20.1236 11.5111 11.6063 20.0284 11.6063 30.5031C11.6063 40.9783 20.1236 49.4956 30.5983 49.4956C41.0736 49.4956 49.5908 40.9783 49.5908 30.5031C49.5908 20.0284 41.0736 11.5111 30.5983 11.5111ZM30.5983 46.9531C21.5219 46.9531 14.1488 39.5671 14.1488 30.5031C14.1488 21.4391 21.5219 14.0536 30.5983 14.0536C39.6837 14.0536 47.0484 21.4183 47.0484 30.5031C47.0484 39.5879 39.6837 46.9531 30.5983 46.9531Z"/>
        <path d="M56.7351 23.5113L57.1547 15.9728C57.184 15.4668 56.9089 14.9916 56.4555 14.7651L49.7433 11.3711L46.3492 4.65886C46.1183 4.20946 45.646 3.93585 45.1415 3.95969L37.5901 4.36688L31.2975 0.209557C30.8734 -0.0700149 30.3237 -0.0700149 29.8992 0.209557L23.6066 4.36688L16.0686 3.94727C15.5621 3.91748 15.0873 4.19258 14.8609 4.64645L11.4663 11.3586L4.75461 14.7527C4.30471 14.9831 4.03159 15.4554 4.05543 15.9604L4.47454 23.4989L0.317711 29.7915C0.0381393 30.2156 0.0381393 30.7653 0.317711 31.1898L4.46212 37.4949L4.04252 45.0334C4.01322 45.5394 4.28783 46.0146 4.7417 46.241L11.4539 49.6351L14.848 56.3473C15.0784 56.7972 15.5506 57.0703 16.0557 57.0465L23.5942 56.6269L29.8868 60.7837C30.3083 61.0722 30.8635 61.0722 31.2851 60.7837L37.5777 56.6269L45.1162 57.0465C45.6222 57.0758 46.0969 56.8007 46.3239 56.3473L49.718 49.6351L56.4302 46.241C56.8796 46.0101 57.1532 45.5384 57.1293 45.0334L56.7097 37.4949L60.8666 31.2023C61.1461 30.7782 61.1461 30.228 60.8666 29.8039L56.7351 23.5113ZM54.3704 36.4525C54.2154 36.68 54.1434 36.9536 54.1673 37.2282L54.5611 44.3595L48.2178 47.5629C47.976 47.6841 47.7798 47.8807 47.6587 48.1225L44.4548 54.4658L37.3235 54.072C37.0503 54.0621 36.7807 54.1326 36.5478 54.2751L30.5983 58.2035L24.6494 54.2751C24.4428 54.1356 24.1995 54.0601 23.9502 54.0591H23.8866L16.7548 54.4534L13.5514 48.1096C13.4303 47.8678 13.2341 47.6716 12.9918 47.5505L6.63563 44.3595L7.02991 37.2282C7.03984 36.9551 6.96883 36.6854 6.82632 36.4525L2.89841 30.5031L6.82632 24.5536C6.98174 24.3267 7.05375 24.0526 7.02991 23.7785L6.63563 16.6467L12.9794 13.4433C13.2212 13.3221 13.4174 13.126 13.5385 12.8841L16.7419 6.54038L23.8737 6.93467C24.1463 6.9441 24.416 6.87359 24.6494 6.73107L30.5983 2.80317L36.5478 6.73107C36.7752 6.8865 37.0493 6.9585 37.3235 6.93467L44.4548 6.54038L47.6587 12.8841C47.7798 13.126 47.976 13.3221 48.2178 13.4433L54.5611 16.6467L54.1673 23.7785C54.1573 24.0511 54.2284 24.3207 54.3704 24.5536L58.2988 30.5031L54.3704 36.4525Z"/>
    </g>
    <defs>
        <clipPath id="aaclip0_60246_367">
            <rect width="61" height="61"/>
        </clipPath>
    </defs>
</symbol><symbol viewBox="0 0 16 29" id="arrow-bottom" xmlns="http://www.w3.org/2000/svg">
    <path d="M8 0V28M8 28L1 20.8108M8 28L15 20.8108"/>
</symbol><symbol viewBox="0 0 21 11" id="arrow-catalog" xmlns="http://www.w3.org/2000/svg">
    <path d="M-2.18557e-07 5.5L20 5.5M20 5.5L14.8649 10.5M20 5.5L14.8649 0.499999"/>
</symbol><symbol viewBox="0 0 18 18" id="arrow-down" xmlns="http://www.w3.org/2000/svg">
    <g clip-path="url(#adclip0_324_13)">
        <path d="M4.00005 7.49554C3.99969 7.62361 4.02324 7.75016 4.06897 7.86588C4.1147 7.98159 4.18145 8.08354 4.26431 8.16423L8.54962 12.305C8.67742 12.4311 8.83772 12.5 9.00315 12.5C9.16858 12.5 9.32888 12.4311 9.45668 12.305L13.742 8.01849C13.8878 7.87297 13.9796 7.66387 13.997 7.43718C14.0144 7.21048 13.9561 6.98477 13.8348 6.8097C13.7136 6.63463 13.5394 6.52453 13.3505 6.50363C13.1617 6.48273 12.9736 6.55274 12.8278 6.69825L8.99958 10.5304L5.17137 6.82685C5.06653 6.72201 4.93887 6.65542 4.80349 6.63495C4.66811 6.61448 4.53068 6.64098 4.40746 6.71133C4.28424 6.78167 4.18038 6.89292 4.10818 7.03189C4.03598 7.17087 3.99846 7.33177 4.00005 7.49554Z"/>
    </g>
    <defs>
        <clipPath id="adclip0_324_13">
            <rect width="18" height="18" transform="matrix(0 -1 -1 0 18 18)"/>
        </clipPath>
    </defs>
</symbol><symbol viewBox="0 0 32 24" id="arrow-right" xmlns="http://www.w3.org/2000/svg">
    <path d="M0 12H31M31 12L20.186 1M31 12L20.186 23"/>
</symbol><symbol id="cancel" viewBox="0 0 122.88 122.88" xmlns="http://www.w3.org/2000/svg">
    <defs>
        <style>.afcls-1{fill:#f44336;fill-rule:evenodd;}</style>
    </defs>
    <title>close-red</title>
    <path class="afcls-1" d="M61.44,0A61.44,61.44,0,1,1,0,61.44,61.44,61.44,0,0,1,61.44,0ZM74.58,36.8c1.74-1.77,2.83-3.18,5-1l7,7.13c2.29,2.26,2.17,3.58,0,5.69L73.33,61.83,86.08,74.58c1.77,1.74,3.18,2.83,1,5l-7.13,7c-2.26,2.29-3.58,2.17-5.68,0L61.44,73.72,48.63,86.53c-2.1,2.15-3.42,2.27-5.68,0l-7.13-7c-2.2-2.15-.79-3.24,1-5l12.73-12.7L36.35,48.64c-2.15-2.11-2.27-3.43,0-5.69l7-7.13c2.15-2.2,3.24-.79,5,1L61.44,49.94,74.58,36.8Z"/>
</symbol><symbol viewBox="0 0 16 16" id="clock" xmlns="http://www.w3.org/2000/svg">
    <path fill-rule="evenodd" clip-rule="evenodd" d="M8.00016 14.6667C11.6821 14.6667 14.6668 11.6819 14.6668 8.00004C14.6668 4.31814 11.6821 1.33337 8.00016 1.33337C4.31826 1.33337 1.3335 4.31814 1.3335 8.00004C1.3335 11.6819 4.31826 14.6667 8.00016 14.6667Z" stroke-width="2" stroke-linecap="round" stroke-linejoin="round"/>
    <path d="M8 4V8L10 10" stroke-width="2" stroke-linecap="round" stroke-linejoin="round"/>
</symbol><symbol viewBox="0 0 14 8" id="control-down" xmlns="http://www.w3.org/2000/svg">
    <path d="M1 1L7 7L13 1" stroke-width="2" stroke-linecap="round" stroke-linejoin="round"/>
</symbol><symbol viewBox="0 0 14 8" id="control-up" xmlns="http://www.w3.org/2000/svg">
    <path d="M13 7L7 1L1 7" stroke-width="2" stroke-linecap="round" stroke-linejoin="round"/>
</symbol><symbol viewBox="0 0 16 16" id="delete" xmlns="http://www.w3.org/2000/svg">
    <path d="M1 1L15.5 15.5M15.5 1L1 15.5"/>
</symbol><symbol viewBox="3 3 16 16" id="done" xmlns="http://www.w3.org/2000/svg">
    <defs>
        <linearGradient gradientUnits="userSpaceOnUse" y2="-2.623" x2="0" y1="986.67" id="ak0">
            <stop stop-color="#ffce3b"/>
            <stop offset="1" stop-color="#ffd762"/>
        </linearGradient>
        <linearGradient y2="-2.623" x2="0" y1="986.67" gradientUnits="userSpaceOnUse">
            <stop stop-color="#ffce3b"/>
            <stop offset="1" stop-color="#fef4ab"/>
        </linearGradient>
    </defs>
    <g transform="matrix(1.99997 0 0 1.99997-10.994-2071.68)">
        <rect y="1037.36" x="7" height="8" width="8" rx="4"/>
        <path d="m123.86 12.966l-11.08-11.08c-1.52-1.521-3.368-2.281-5.54-2.281-2.173 0-4.02.76-5.541 2.281l-53.45 53.53-23.953-24.04c-1.521-1.521-3.368-2.281-5.54-2.281-2.173 0-4.02.76-5.541 2.281l-11.08 11.08c-1.521 1.521-2.281 3.368-2.281 5.541 0 2.172.76 4.02 2.281 5.54l29.493 29.493 11.08 11.08c1.52 1.521 3.367 2.281 5.54 2.281 2.172 0 4.02-.761 5.54-2.281l11.08-11.08 58.986-58.986c1.52-1.521 2.281-3.368 2.281-5.541.0001-2.172-.761-4.02-2.281-5.54" transform="matrix(.0436 0 0 .0436 8.177 1039.72)" stroke-width="9.512"/>
    </g>
</symbol><symbol viewBox="0 0 24 24" id="edit" xmlns="http://www.w3.org/2000/svg">
    <path fill-rule="evenodd" clip-rule="evenodd" d="M14 2L18 6L7 17H3V13L14 2V2Z" stroke-width="2" stroke-linecap="round" stroke-linejoin="round"/>
    <path d="M3 22H21" stroke-width="2" stroke-linecap="round" stroke-linejoin="round"/>
</symbol><symbol viewBox="0 0 21 21" id="facebook" xmlns="http://www.w3.org/2000/svg">
    <g clip-path="url(#amclip0_4_303)">
        <path d="M18.5391 0H2.46094C1.1039 0 0 1.1039 0 2.46094V18.5391C0 19.8961 1.1039 21 2.46094 21H18.5391C19.8961 21 21 19.8961 21 18.5391V2.46094C21 1.1039 19.8961 0 18.5391 0ZM19.3594 18.5391C19.3594 18.9914 18.9914 19.3594 18.5391 19.3594H13.6992V13.3711H16.3253L16.6314 10.8281H13.6992V8.08008C13.6992 7.37865 14.2283 6.84961 14.9297 6.84961H16.7754V4.4707C16.2896 4.40213 15.3525 4.30664 14.9297 4.30664C13.973 4.30664 13.0141 4.71023 12.2989 5.41374C11.5621 6.13857 11.1562 7.08801 11.1562 8.08729V10.8281H8.49023V13.3711H11.1562V19.3594H2.46094C2.00864 19.3594 1.64062 18.9914 1.64062 18.5391V2.46094C1.64062 2.00864 2.00864 1.64062 2.46094 1.64062H18.5391C18.9914 1.64062 19.3594 2.00864 19.3594 2.46094V18.5391Z"/>
    </g>
    <defs>
        <clipPath id="amclip0_4_303">
            <rect width="21" height="21"/>
        </clipPath>
    </defs>
</symbol><symbol viewBox="0 0 20 20" id="favorite" xmlns="http://www.w3.org/2000/svg">
    <path d="M9.22318 17.1147L9.22174 17.1134C6.62662 14.7602 4.55384 12.878 3.1178 11.1223C1.69324 9.38069 1 7.88574 1 6.32422C1 3.7965 2.97228 1.82422 5.5 1.82422C6.93721 1.82422 8.33224 2.49815 9.23865 3.56256L10 4.45662L10.7614 3.56256C11.6678 2.49815 13.0628 1.82422 14.5 1.82422C17.0277 1.82422 19 3.7965 19 6.32422C19 7.88575 18.3068 9.38075 16.882 11.1239C15.4459 12.8808 13.3734 14.7651 10.7786 17.1232C10.7782 17.1235 10.7778 17.1238 10.7775 17.1241L10.0026 17.8242L9.22318 17.1147Z" stroke-width="2"/>
</symbol><symbol viewBox="0 0 24 24" id="folder" xmlns="http://www.w3.org/2000/svg">
    <path fill-rule="evenodd" clip-rule="evenodd" d="M22 19C22 20.1046 21.1046 21 20 21H4C2.89543 21 2 20.1046 2 19V5C2 3.89543 2.89543 3 4 3H9L11 6H20C21.1046 6 22 6.89543 22 8V19Z" stroke-width="2" stroke-linecap="round" stroke-linejoin="round"/>
</symbol><symbol viewBox="0 0 63 63" id="hand" xmlns="http://www.w3.org/2000/svg">
    <path d="M24.7774 43.7903C24.4414 43.7903 24.1054 43.6617 23.8481 43.407L6.21598 25.7723C4.16848 23.7248 4.16848 20.3937 6.21598 18.3462C8.26873 16.2987 11.5972 16.3039 13.6395 18.3462L29.4184 34.125C29.9302 34.6369 29.9302 35.469 29.4184 35.9809C28.9065 36.4928 28.0744 36.4928 27.5625 35.9809L11.7836 20.202C10.7651 19.1835 9.10086 19.1809 8.07186 20.202C7.57836 20.6982 7.30273 21.357 7.30273 22.0579C7.30273 22.7614 7.57573 23.4203 8.07186 23.9164L25.7066 41.5485C26.2185 42.0604 26.2185 42.8925 25.7066 43.4044C25.4494 43.6617 25.1134 43.7903 24.7774 43.7903Z"/>
    <path d="M34.0594 30.7965C33.7234 30.7965 33.3874 30.6678 33.1301 30.4132L15.498 12.7785C14.4716 11.7521 12.81 11.7521 11.7836 12.7785C11.2901 13.2746 11.0145 13.9335 11.0145 14.6343C11.0145 15.3352 11.2875 15.9941 11.7836 16.4902L13.6395 18.3461C14.1514 18.858 14.1514 19.6901 13.6395 20.202C13.1276 20.7138 12.2955 20.7138 11.7836 20.202L9.92778 18.3461C8.93553 17.3538 8.38953 16.0361 8.38953 14.6343C8.38953 13.2326 8.93553 11.9148 9.92778 10.9226C11.9096 8.9407 15.3668 8.93545 17.3539 10.9226L34.986 28.5573C35.4979 29.0692 35.4979 29.9013 34.986 30.4132C34.7288 30.6705 34.3954 30.7965 34.0594 30.7965Z"/>
    <path d="M39.6296 25.2289C39.2936 25.2289 38.9576 25.1002 38.7004 24.8456L24.7774 10.9226C23.751 9.89624 22.092 9.89624 21.0656 10.9226C20.0419 11.9464 20.0419 13.6106 21.0656 14.6344C21.5775 15.1462 21.5775 15.9784 21.0656 16.4902C20.5537 17.0021 19.7216 17.0021 19.2097 16.4902C17.1649 14.4454 17.1649 11.1116 19.2097 9.06674C21.2546 7.02186 24.5884 7.02186 26.6332 9.06674L40.5562 22.9897C41.0681 23.5016 41.0681 24.3337 40.5562 24.8456C40.3016 25.1002 39.9656 25.2289 39.6296 25.2289Z"/>
    <path d="M38.1964 59.4667C37.3117 59.4667 36.4166 59.367 35.5294 59.1648L13.4269 54.0986C12.4714 53.8991 11.5815 53.4108 10.857 52.6863C9.86473 51.6941 9.3161 50.3737 9.3161 48.9746C9.3161 47.5728 9.86473 46.2551 10.857 45.2628C11.5395 44.5803 12.369 44.1105 13.2641 43.8926C13.2904 43.8821 13.3166 43.8768 13.3429 43.8689L24.4729 41.1993C25.179 41.0234 25.8877 41.4671 26.0557 42.1706C26.2237 42.8767 25.788 43.5828 25.0845 43.7534L14.0306 46.4047C13.9965 46.4152 13.9624 46.4257 13.9256 46.4336C13.4846 46.5307 13.0646 46.7696 12.7129 47.1213C12.2167 47.6175 11.9411 48.2763 11.9411 48.9772C11.9411 49.6781 12.2141 50.3369 12.7129 50.8331C13.062 51.1822 13.4951 51.429 13.9309 51.5261C13.9492 51.5287 13.965 51.5313 13.9807 51.5366L36.1174 56.6107C39.2227 57.3221 42.4174 56.4033 44.667 54.1511L55.4085 43.4069C57.1436 41.6718 58.0991 39.3644 58.0991 36.9101C58.0991 34.4557 57.1436 32.1509 55.4085 30.4132L32.2061 7.21082C31.1797 6.18445 29.5207 6.18445 28.4944 7.21082C27.4706 8.23457 27.4706 9.89882 28.4944 10.9226C29.0062 11.4344 29.0062 12.2666 28.4944 12.7784C27.9825 13.2903 27.1504 13.2903 26.6385 12.7784C24.5936 10.7336 24.5936 7.39982 26.6385 5.35495C28.6834 3.31007 32.0171 3.31007 34.062 5.35495L57.2644 28.5573C59.4982 30.7886 60.7241 33.7522 60.7241 36.9101C60.7241 40.068 59.4956 43.0316 57.2644 45.2628L46.5229 56.007C44.2706 58.2513 41.2886 59.4667 38.1964 59.4667Z"/>
</symbol><symbol viewBox="0 0 22 23" id="instagram" xmlns="http://www.w3.org/2000/svg">
    <g clip-path="url(#aqclip0_4_278)">
        <path d="M15.6094 0.5H6.39066C2.86683 0.5 0 3.36683 0 6.89066V16.1093C0 19.6332 2.86683 22.5 6.39066 22.5H15.6093C19.1332 22.5 22 19.6332 22 16.1094V6.89066C22 3.36683 19.1332 0.5 15.6094 0.5ZM20.2812 16.1093C20.2812 18.6854 18.1854 20.7812 15.6094 20.7812H6.39066C3.81455 20.7812 1.71875 18.6854 1.71875 16.1094V6.89066C1.71875 4.31455 3.81455 2.21875 6.39066 2.21875H15.6093C18.1854 2.21875 20.2812 4.31455 20.2812 6.89066V16.1093Z"/>
        <path d="M11 5.57031C7.73034 5.57031 5.07031 8.23034 5.07031 11.5C5.07031 14.7697 7.73034 17.4297 11 17.4297C14.2697 17.4297 16.9297 14.7697 16.9297 11.5C16.9297 8.23034 14.2697 5.57031 11 5.57031ZM11 15.7109C8.6781 15.7109 6.78906 13.8219 6.78906 11.5C6.78906 9.1781 8.6781 7.28906 11 7.28906C13.3219 7.28906 15.2109 9.1781 15.2109 11.5C15.2109 13.8219 13.3219 15.7109 11 15.7109Z"/>
        <path d="M17.0156 6.34375C17.4902 6.34375 17.875 5.95899 17.875 5.48438C17.875 5.00976 17.4902 4.625 17.0156 4.625C16.541 4.625 16.1562 5.00976 16.1562 5.48438C16.1562 5.95899 16.541 6.34375 17.0156 6.34375Z"/>
    </g>
    <defs>
        <clipPath id="aqclip0_4_278">
            <rect width="22" height="22" transform="translate(0 0.5)"/>
        </clipPath>
    </defs>
</symbol><symbol viewBox="0 0 25 25" id="logo" xmlns="http://www.w3.org/2000/svg">
    <g clip-path="url(#arclip0_4_511)">
        <path d="M21.517 22.6493L21.1588 20.9776C20.4207 17.5332 19.0684 14.2964 17.1388 11.3529V8.64058C18.0276 7.97178 18.6036 6.9084 18.6036 5.71289V4.24805C18.6036 3.84355 18.2757 3.51562 17.8712 3.51562H17.1388V0.732422C17.1388 0.32793 16.8108 0 16.4063 0C16.0018 0 15.6739 0.32793 15.6739 0.732422V3.52339C14.3585 3.6001 13.206 4.29209 12.5001 5.31528C11.7942 4.29209 10.6417 3.6001 9.32626 3.52339V0.732422C9.32626 0.32793 8.99833 0 8.59384 0C8.18935 0 7.86142 0.32793 7.86142 0.732422V3.51562H7.12899C6.7245 3.51562 6.39657 3.84355 6.39657 4.24805V5.71289C6.39657 6.9084 6.97255 7.97178 7.86142 8.64058V11.3529C5.93183 14.2964 4.57943 17.5332 3.84135 20.9776L3.48314 22.6493C3.40658 23.0066 3.60517 23.3658 3.94862 23.4909C6.6975 24.4923 9.5746 25 12.5001 25C15.4256 25 18.3027 24.4923 21.0516 23.4909C21.395 23.3658 21.5936 23.0067 21.517 22.6493ZM15.9181 4.98047H17.1388V5.71289C17.1388 6.92446 16.1531 7.91016 14.9415 7.91016H13.2325V7.66602C13.2325 6.1852 14.4372 4.98047 15.9181 4.98047ZM7.86142 4.98047H9.08212C10.5629 4.98047 11.7677 6.1852 11.7677 7.66602V7.91016H10.0587C8.84711 7.91016 7.86142 6.92446 7.86142 5.71289V4.98047ZM10.0587 9.375H14.9415C15.1923 9.375 15.4372 9.34956 15.6739 9.30132V10.8398H9.32626V9.30132C9.56298 9.34956 9.8079 9.375 10.0587 9.375ZM12.5001 23.5352C9.95859 23.5352 7.4557 23.128 5.05082 22.3244L5.27362 21.2846C5.96127 18.0757 7.21064 15.0566 8.9891 12.3047L16.011 12.3047C17.7895 15.0566 19.0389 18.0757 19.7265 21.2845L19.9493 22.3244C17.5445 23.128 15.0416 23.5352 12.5001 23.5352Z"/>
    </g>
    <defs>
        <clipPath id="arclip0_4_511">
            <rect width="25" height="25"/>
        </clipPath>
    </defs>
</symbol><symbol viewBox="0 0 24 24" id="logout" xmlns="http://www.w3.org/2000/svg">
    <path fill-rule="evenodd" clip-rule="evenodd" d="M2 6.5C2 4.01472 4.01472 2 6.5 2H12C14.2091 2 16 3.79086 16 6V7C16 7.55228 15.5523 8 15 8C14.4477 8 14 7.55228 14 7V6C14 4.89543 13.1046 4 12 4H6.5C5.11929 4 4 5.11929 4 6.5V17.5C4 18.8807 5.11929 20 6.5 20H12C13.1046 20 14 19.1046 14 18V17C14 16.4477 14.4477 16 15 16C15.5523 16 16 16.4477 16 17V18C16 20.2091 14.2091 22 12 22H6.5C4.01472 22 2 19.9853 2 17.5V6.5ZM18.2929 8.29289C18.6834 7.90237 19.3166 7.90237 19.7071 8.29289L22.7071 11.2929C23.0976 11.6834 23.0976 12.3166 22.7071 12.7071L19.7071 15.7071C19.3166 16.0976 18.6834 16.0976 18.2929 15.7071C17.9024 15.3166 17.9024 14.6834 18.2929 14.2929L19.5858 13L11 13C10.4477 13 10 12.5523 10 12C10 11.4477 10.4477 11 11 11L19.5858 11L18.2929 9.70711C17.9024 9.31658 17.9024 8.68342 18.2929 8.29289Z"/>
</symbol><symbol viewBox="0 0 24 24" id="mail" xmlns="http://www.w3.org/2000/svg">
    <path fill-rule="evenodd" clip-rule="evenodd" d="M4 4H20C21.1 4 22 4.9 22 6V18C22 19.1 21.1 20 20 20H4C2.9 20 2 19.1 2 18V6C2 4.9 2.9 4 4 4Z" stroke-width="2" stroke-linecap="round" stroke-linejoin="round"/>
    <path d="M22 6L12 13L2 6" stroke-width="2" stroke-linecap="round" stroke-linejoin="round"/>
</symbol><symbol viewBox="0 0 780 500" id="mastercard" xmlns="http://www.w3.org/2000/svg">
    <g clip-path="url(#auclip0_6278_125843)">
        <path d="M40 0H740C762.092 0 780 17.909 780 40V460C780 482.092 762.092 500 740 500H40C17.909 500 0 482.092 0 460V40C0 17.909 17.909 0 40 0Z"/>
        <path d="M211.053 467.045V438.109C211.053 427.041 204.311 419.793 192.736 419.793C186.949 419.793 180.657 421.703 176.33 427.996C172.959 422.715 168.127 419.793 160.879 419.793C156.047 419.793 151.215 421.254 147.395 426.535V420.748H137.281V467.045H147.395V441.481C147.395 433.278 151.721 429.401 158.463 429.401C165.205 429.401 168.577 433.727 168.577 441.481V467.045H178.69V441.481C178.69 433.278 183.522 429.401 189.759 429.401C196.501 429.401 199.872 433.727 199.872 441.481V467.045H211.053ZM361.068 420.748H344.662V406.758H334.549V420.748H325.391V429.906H334.549V451.145C334.549 461.764 338.875 468 350.449 468C354.776 468 359.608 466.539 362.979 464.629L360.057 455.92C357.135 457.831 353.764 458.336 351.348 458.336C346.516 458.336 344.606 455.415 344.606 450.639V429.906H361.012V420.748H361.068ZM446.92 419.737C441.133 419.737 437.256 422.658 434.84 426.479V420.692H424.727V466.989H434.84V440.919C434.84 433.221 438.211 428.839 444.504 428.839C446.414 428.839 448.83 429.345 450.797 429.794L453.718 420.13C451.696 419.737 448.83 419.737 446.92 419.737ZM317.187 424.569C312.356 421.198 305.613 419.737 298.365 419.737C286.791 419.737 279.094 425.524 279.094 434.682C279.094 442.38 284.881 446.762 294.994 448.167L299.826 448.672C305.108 449.628 308.029 451.088 308.029 453.504C308.029 456.875 304.152 459.291 297.41 459.291C290.668 459.291 285.33 456.875 281.959 454.459L277.127 462.157C282.409 466.034 289.657 467.944 296.904 467.944C310.389 467.944 318.143 461.651 318.143 452.999C318.143 444.796 311.85 440.469 302.242 439.008L297.41 438.503C293.084 437.997 289.713 437.042 289.713 434.176C289.713 430.805 293.084 428.895 298.421 428.895C304.209 428.895 309.996 431.311 312.917 432.772L317.187 424.569ZM586.26 419.737C580.473 419.737 576.596 422.658 574.18 426.479V420.692H564.067V466.989H574.18V440.919C574.18 433.221 577.551 428.839 583.844 428.839C585.754 428.839 588.17 429.345 590.137 429.794L593.059 420.242C591.092 419.737 588.227 419.737 586.26 419.737ZM457.033 443.897C457.033 457.887 466.697 468 481.643 468C488.385 468 493.217 466.539 498.049 462.719L493.217 454.516C489.34 457.437 485.519 458.842 481.137 458.842C472.934 458.842 467.147 453.055 467.147 443.897C467.147 435.188 472.934 429.401 481.137 428.951C485.463 428.951 489.34 430.412 493.217 433.278L498.049 425.074C493.217 421.198 488.385 419.793 481.643 419.793C466.697 419.737 457.033 429.906 457.033 443.897ZM550.582 443.897V420.748H540.469V426.535C537.098 422.209 532.266 419.793 525.973 419.793C512.938 419.793 502.825 429.906 502.825 443.897C502.825 457.887 512.938 468 525.973 468C532.715 468 537.547 465.584 540.469 461.258V467.045H550.582V443.897ZM513.444 443.897C513.444 435.693 518.725 428.951 527.434 428.951C535.637 428.951 541.424 435.244 541.424 443.897C541.424 452.1 535.637 458.842 527.434 458.842C518.781 458.336 513.444 452.043 513.444 443.897ZM392.42 419.737C378.935 419.737 369.271 429.401 369.271 443.84C369.271 458.336 378.935 467.944 392.926 467.944C399.668 467.944 406.41 466.034 411.748 461.651L406.916 454.403C403.039 457.325 398.207 459.235 393.431 459.235C387.139 459.235 380.902 456.314 379.441 448.167H413.658C413.658 446.706 413.658 445.751 413.658 444.29C414.108 429.401 405.399 419.737 392.42 419.737ZM392.42 428.446C398.713 428.446 403.039 432.322 403.994 439.514H379.891C380.846 433.278 385.172 428.446 392.42 428.446ZM643.682 443.897V402.432H633.568V426.535C630.197 422.209 625.365 419.793 619.073 419.793C606.037 419.793 595.924 429.906 595.924 443.897C595.924 457.887 606.037 468 619.073 468C625.815 468 630.647 465.584 633.568 461.258V467.045H643.682V443.897ZM606.543 443.897C606.543 435.693 611.825 428.951 620.533 428.951C628.736 428.951 634.524 435.244 634.524 443.897C634.524 452.1 628.736 458.842 620.533 458.842C611.825 458.336 606.543 452.043 606.543 443.897ZM267.969 443.897V420.748H257.855V426.535C254.484 422.209 249.652 419.793 243.36 419.793C230.325 419.793 220.211 429.906 220.211 443.897C220.211 457.887 230.325 468 243.36 468C250.102 468 254.934 465.584 257.855 461.258V467.045H267.969V443.897ZM230.381 443.897C230.381 435.693 235.662 428.951 244.371 428.951C252.574 428.951 258.361 435.244 258.361 443.897C258.361 452.1 252.574 458.842 244.371 458.842C235.662 458.336 230.381 452.043 230.381 443.897Z"/>
        <path d="M465.738 69.1387H313.812V342.088H465.738V69.1387Z"/>
        <path d="M323.926 205.613C323.926 150.158 349.996 100.94 390 69.1387C360.559 45.9902 323.42 32 282.91 32C186.945 32 109.297 109.648 109.297 205.613C109.297 301.578 186.945 379.227 282.91 379.227C323.42 379.227 360.559 365.237 390 342.088C349.94 310.737 323.926 261.069 323.926 205.613Z"/>
        <path d="M670.711 205.613C670.711 301.578 593.062 379.227 497.098 379.227C456.588 379.227 419.449 365.237 390.008 342.088C430.518 310.231 456.082 261.069 456.082 205.613C456.082 150.158 430.012 100.94 390.008 69.1387C419.393 45.9902 456.532 32 497.041 32C593.062 32 670.711 110.154 670.711 205.613Z"/>
    </g>
    <defs>
        <clipPath id="auclip0_6278_125843">
            <rect width="780" height="500"/>
        </clipPath>
    </defs>
</symbol><symbol viewBox="0 0 24 24" id="message-square" xmlns="http://www.w3.org/2000/svg">
    <path fill-rule="evenodd" clip-rule="evenodd" d="M21 15C21 16.1046 20.1046 17 19 17H7L3 21V5C3 3.89543 3.89543 3 5 3H19C20.1046 3 21 3.89543 21 5V15Z" stroke-width="2" stroke-linecap="round" stroke-linejoin="round"/>
</symbol><symbol id="mir" viewBox="0 0 780 500" style="enable-background:new 0 0 780 500" xml:space="preserve" xmlns="http://www.w3.org/2000/svg">
    <style type="text/css">.awst0{fill:#FFFFFF;}.awst1{fill:#37A72E;}.awst2{fill:url(#awCombined-Shape_4_);}</style>
    <path class="awst0" d="M40,0h700c22.1,0,40,17.9,40,40v420c0,22.1-17.9,40-40,40H40c-22.1,0-40-17.9-40-40V40C0,17.9,17.9,0,40,0z"/>
    <g id="awPage-1">
        <g id="awArtboard" transform="translate(-91.000000, -154.000000)">
            <g id="awGroup" transform="translate(91.000000, 154.000000)">
                <path id="awCombined-Shape" class="awst1" d="M544.1,240.5v108h60v-64h68c28.6-0.2,52.9-18.5,62.1-44H544.1z"/>
                <linearGradient id="awCombined-Shape_4_" gradientUnits="userSpaceOnUse" x1="362.4047" y1="275.4307" x2="363.4047" y2="275.4307" gradientTransform="matrix(201.7633 0 0 -79 -72583.8438 21950.0254)">
                    <stop offset="0" style="stop-color:#00A0E5"/>
                    <stop offset="1" style="stop-color:#0077C3"/>
                </linearGradient>
                <path id="awCombined-Shape_1_" class="awst2" d="M536.1,151.5c3.5,44.1,45.3,79,96.3,79c0.2,0,104.3,0,104.3,0     c0.8-4,1.2-8.2,1.2-12.5c0-36.6-29.5-66.2-66-66.5L536.1,151.5z"/>
                <path id="awCombined-Shape_2_" class="awst1" d="M447.3,229.4l0-0.1L447.3,229.4c0.7-1.2,1.8-1.9,3.2-1.9c2,0,3.5,1.6,3.6,3.5l0,0     v116.5h60v-196h-60c-7.6,0.3-16.2,5.8-19.4,12.7L387,266.6c-0.1,0.4-0.3,0.8-0.5,1.2l0,0l0,0c-0.7,1-1.9,1.7-3.3,1.7     c-2.2,0-4-1.8-4-4v-114h-60v196h60v0c7.5-0.4,15.9-5.9,19.1-12.7l49-105.1C447.2,229.6,447.3,229.5,447.3,229.4L447.3,229.4z"/>
                <path id="awCombined-Shape_3_" class="awst1" d="M223.3,232.8l-35.1,114.7H145L110,232.7c-0.3-1.8-1.9-3.2-3.9-3.2     c-2.2,0-3.9,1.8-3.9,3.9c0,0,0,0,0,0l0,114h-60v-196h51.5H109c11,0,22.6,8.6,25.8,19.1l29.2,95.5c1.5,4.8,3.8,4.7,5.3,0     l29.2-95.5c3.2-10.6,14.8-19.1,25.8-19.1h15.3h51.5v196h-60v-114c0,0,0,0,0-0.1c0-2.2-1.8-3.9-3.9-3.9     C225.2,229.5,223.6,230.9,223.3,232.8L223.3,232.8z"/>
            </g>
        </g>
    </g>
</symbol><symbol enable-background="new 0 0 780 500" viewBox="0 0 780 500" xml:space="preserve" id="paypal" xmlns="http://www.w3.org/2000/svg">
    <path d="M725,0H55C24.673,0,0,24.673,0,55v391c0,30.327,24.673,55,55,55h670c30.325,0,55-24.673,55-55V55  C780,24.673,755.325,0,725,0z"/>
    <path d="m168.38 169.85c-8.399-5.774-19.359-8.668-32.88-8.668h-52.346c-4.145 0-6.435 2.073-6.87 6.214l-21.265 133.48c-0.221 1.311 0.107 2.51 0.981 3.6 0.869 1.093 1.962 1.636 3.271 1.636h24.864c4.361 0 6.758-2.068 7.198-6.216l5.888-35.985c0.215-1.744 0.982-3.162 2.291-4.254 1.308-1.09 2.944-1.804 4.907-2.13 1.963-0.324 3.814-0.487 5.562-0.487 1.743 0 3.814 0.11 6.217 0.327 2.397 0.218 3.925 0.324 4.58 0.324 18.756 0 33.478-5.285 44.167-15.866 10.684-10.577 16.032-25.244 16.032-44.004 0-12.868-4.202-22.192-12.597-27.975zm-26.99 40.08c-1.094 7.635-3.926 12.649-8.506 15.049-4.581 2.403-11.124 3.597-19.629 3.597l-10.797 0.328 5.563-35.007c0.434-2.397 1.851-3.597 4.252-3.597h6.218c8.72 0 15.049 1.257 18.975 3.761 3.924 2.51 5.233 7.802 3.924 15.869z"/>
    <path d="m720.79 161.18h-24.208c-2.405 0-3.821 1.2-4.253 3.599l-21.267 136.1-0.328 0.654c0 1.096 0.437 2.127 1.311 3.109 0.868 0.979 1.963 1.471 3.271 1.471h21.595c4.138 0 6.429-2.068 6.871-6.215l21.265-133.81v-0.325c-2e-3 -3.053-1.424-4.58-4.257-4.58z"/>
    <path d="m428.31 213.86c0-1.088-0.438-2.126-1.306-3.106-0.875-0.981-1.857-1.474-2.945-1.474h-25.191c-2.404 0-4.366 1.096-5.89 3.271l-34.679 51.04-14.394-49.075c-1.096-3.488-3.493-5.236-7.198-5.236h-24.54c-1.093 0-2.075 0.492-2.942 1.474-0.875 0.98-1.309 2.019-1.309 3.106 0 0.44 2.127 6.871 6.379 19.303 4.252 12.434 8.833 25.848 13.741 40.244 4.908 14.394 7.468 22.031 7.688 22.898-17.886 24.43-26.826 37.518-26.826 39.26 0 2.838 1.417 4.254 4.253 4.254h25.191c2.399 0 4.361-1.088 5.89-3.271l83.427-120.4c0.433-0.433 0.651-1.193 0.651-2.289z"/>
    <path d="m662.89 209.28h-24.865c-3.056 0-4.904 3.599-5.559 10.797-5.677-8.72-16.031-13.088-31.083-13.088-15.704 0-29.065 5.89-40.077 17.668-11.016 11.779-16.521 25.631-16.521 41.551 0 12.871 3.761 23.121 11.285 30.752 7.524 7.639 17.611 11.451 30.266 11.451 6.323 0 12.757-1.311 19.3-3.926 6.544-2.617 11.665-6.105 15.379-10.469 0 0.219-0.222 1.198-0.654 2.942-0.44 1.748-0.655 3.06-0.655 3.926 0 3.494 1.414 5.234 4.254 5.234h22.576c4.138 0 6.541-2.068 7.193-6.216l13.415-85.389c0.215-1.309-0.111-2.507-0.981-3.599-0.876-1.087-1.964-1.634-3.273-1.634zm-42.694 64.452c-5.562 5.453-12.269 8.179-20.12 8.179-6.328 0-11.449-1.742-15.377-5.234-3.928-3.483-5.891-8.282-5.891-14.396 0-8.064 2.727-14.884 8.181-20.446 5.446-5.562 12.214-8.343 20.284-8.343 6.102 0 11.174 1.8 15.212 5.397 4.032 3.599 6.055 8.563 6.055 14.888-1e-3 7.851-2.783 14.505-8.344 19.955z"/>
    <path d="m291.23 209.28h-24.864c-3.058 0-4.908 3.599-5.563 10.797-5.889-8.72-16.25-13.088-31.081-13.088-15.704 0-29.065 5.89-40.078 17.668-11.016 11.779-16.521 25.631-16.521 41.551 0 12.871 3.763 23.121 11.288 30.752 7.525 7.639 17.61 11.451 30.262 11.451 6.104 0 12.433-1.311 18.975-3.926 6.543-2.617 11.778-6.105 15.704-10.469-0.875 2.616-1.309 4.907-1.309 6.868 0 3.494 1.417 5.234 4.253 5.234h22.574c4.141 0 6.543-2.068 7.198-6.216l13.413-85.389c0.215-1.309-0.112-2.507-0.981-3.599-0.873-1.087-1.962-1.634-3.27-1.634zm-42.695 64.614c-5.563 5.351-12.382 8.017-20.447 8.017-6.329 0-11.4-1.742-15.214-5.234-3.819-3.483-5.726-8.282-5.726-14.396 0-8.064 2.725-14.884 8.18-20.446 5.449-5.562 12.211-8.343 20.284-8.343 6.104 0 11.175 1.8 15.214 5.398 4.032 3.599 6.052 8.563 6.052 14.888 0 8.069-2.781 14.778-8.343 20.116z"/>
    <path d="m540.04 169.85c-8.398-5.774-19.356-8.668-32.879-8.668h-52.02c-4.364 0-6.765 2.073-7.197 6.214l-21.266 133.48c-0.221 1.312 0.106 2.511 0.981 3.601 0.865 1.092 1.962 1.635 3.271 1.635h26.826c2.617 0 4.361-1.416 5.235-4.252l5.89-37.949c0.216-1.744 0.98-3.162 2.29-4.254 1.309-1.09 2.943-1.803 4.908-2.13 1.962-0.324 3.812-0.487 5.562-0.487 1.743 0 3.814 0.11 6.214 0.327 2.399 0.218 3.931 0.324 4.58 0.324 18.76 0 33.479-5.285 44.168-15.866 10.688-10.577 16.031-25.244 16.031-44.004 2e-3 -12.867-4.199-22.191-12.594-27.974zm-33.534 53.82c-4.799 3.271-11.997 4.906-21.592 4.906l-10.47 0.328 5.562-35.007c0.432-2.397 1.849-3.597 4.252-3.597h5.887c4.798 0 8.614 0.218 11.454 0.653 2.831 0.44 5.562 1.799 8.179 4.089 2.618 2.291 3.926 5.618 3.926 9.98 0 9.16-2.402 15.375-7.198 18.648z"/>
</symbol><symbol viewBox="0 0 17 17" id="phone" xmlns="http://www.w3.org/2000/svg">
    <g clip-path="url(#ayclip0_60246_323)">
        <path d="M2.25235 4.81643C0.750523 6.31823 0.750523 8.7618 2.25232 10.2636L3.05001 9.46592C1.9881 8.40402 1.98807 6.67613 3.05004 5.61417C4.11197 4.55224 5.83985 4.55224 6.90179 5.61414L7.69947 4.81646C6.1977 3.31463 3.75412 3.31466 2.25235 4.81643Z"/>
        <path d="M3.84133 6.39119C3.20916 7.02336 3.20913 8.05201 3.8413 8.68421L4.63901 7.88653C4.54584 7.79335 4.49453 7.66947 4.49453 7.53772C4.49453 7.40599 4.54587 7.2821 4.63904 7.18893C4.73221 7.09576 4.8561 7.04444 4.98782 7.04444C5.11958 7.04444 5.24349 7.09576 5.33664 7.18893L6.13432 6.39122C5.50215 5.75902 4.4735 5.75902 3.84133 6.39119Z"/>
        <path d="M13.7482 4.43513L11.855 2.54848L7.92331 6.47367L9.44752 8.04781C9.19208 8.50125 8.63784 9.3699 7.69327 10.3145C6.74859 11.2592 5.8736 11.8197 5.41581 12.0792L3.87255 10.5556L0.00219727 14.4029L1.88504 16.2983C2.60479 17.0181 3.69992 17.2046 4.61014 16.7625C5.99915 16.0879 8.0954 14.8431 10.1942 12.7443C12.2931 10.6455 13.5378 8.54924 14.2124 7.16023C14.3723 6.83109 14.4499 6.47787 14.4499 6.12692C14.4499 5.5072 14.2077 4.89464 13.7482 4.43513ZM13.1977 6.66732C12.5609 7.97846 11.3845 9.95865 9.39655 11.9466C7.40862 13.9345 5.42842 15.1109 4.11729 15.7477C3.63929 15.9799 3.06281 15.8806 2.68414 15.5019L1.59739 14.4079L3.87537 12.1436L5.19009 13.4415L5.54183 13.2849C5.59899 13.2595 6.95941 12.6438 8.4911 11.1121C10.0238 9.57947 10.6266 8.23054 10.6515 8.17386L10.804 7.82683L9.50671 6.48705L11.8558 4.14178L12.9511 5.23327C13.3306 5.6133 13.4298 6.18952 13.1977 6.66732Z"/>
    </g>
    <defs>
        <clipPath id="ayclip0_60246_323">
            <rect width="17" height="17"/>
        </clipPath>
    </defs>
</symbol><symbol viewBox="0 0 24 24" id="profile" xmlns="http://www.w3.org/2000/svg">
    <g clip-path="url(#azclip0_15_82)">
        <rect width="24" height="24"/>
        <g filter="url(#azfilter0_d_15_82)">
            <path d="M14.3365 12.3466L14.0765 11.9195C13.9082 12.022 13.8158 12.2137 13.8405 12.4092C13.8651 12.6046 14.0022 12.7674 14.1907 12.8249L14.3365 12.3466ZM9.6634 12.3466L9.80923 12.8249C9.99769 12.7674 10.1348 12.6046 10.1595 12.4092C10.1841 12.2137 10.0917 12.022 9.92339 11.9195L9.6634 12.3466ZM4.06161 19.002L3.56544 18.9402L4.06161 19.002ZM19.9383 19.002L20.4345 18.9402L19.9383 19.002ZM16 8.5C16 9.94799 15.2309 11.2168 14.0765 11.9195L14.5965 12.7737C16.0365 11.8971 17 10.3113 17 8.5H16ZM12 4.5C14.2091 4.5 16 6.29086 16 8.5H17C17 5.73858 14.7614 3.5 12 3.5V4.5ZM7.99996 8.5C7.99996 6.29086 9.79082 4.5 12 4.5V3.5C9.23854 3.5 6.99996 5.73858 6.99996 8.5H7.99996ZM9.92339 11.9195C8.76904 11.2168 7.99996 9.948 7.99996 8.5H6.99996C6.99996 10.3113 7.96342 11.8971 9.40342 12.7737L9.92339 11.9195ZM9.51758 11.8683C6.36083 12.8309 3.98356 15.5804 3.56544 18.9402L4.55778 19.0637C4.92638 16.1018 7.02381 13.6742 9.80923 12.8249L9.51758 11.8683ZM3.56544 18.9402C3.45493 19.8282 4.19055 20.5 4.99996 20.5V19.5C4.70481 19.5 4.53188 19.2719 4.55778 19.0637L3.56544 18.9402ZM4.99996 20.5H19V19.5H4.99996V20.5ZM19 20.5C19.8094 20.5 20.545 19.8282 20.4345 18.9402L19.4421 19.0637C19.468 19.2719 19.2951 19.5 19 19.5V20.5ZM20.4345 18.9402C20.0164 15.5804 17.6391 12.8309 14.4823 11.8683L14.1907 12.8249C16.9761 13.6742 19.0735 16.1018 19.4421 19.0637L20.4345 18.9402Z"/>
        </g>
    </g>
    <defs>
        <filter id="azfilter0_d_15_82" x="2.55444" y="3.5" width="18.8911" height="19" filterUnits="userSpaceOnUse" color-interpolation-filters="sRGB">
            <feFlood flood-opacity="0" result="BackgroundImageFix"/>
            <feColorMatrix in="SourceAlpha" type="matrix" values="0 0 0 0 0 0 0 0 0 0 0 0 0 0 0 0 0 0 127 0" result="hardAlpha"/>
            <feOffset dy="1"/>
            <feGaussianBlur stdDeviation="0.5"/>
            <feColorMatrix type="matrix" values="0 0 0 0 0 0 0 0 0 0 0 0 0 0 0 0 0 0 0.1 0"/>
            <feBlend mode="normal" in2="BackgroundImageFix" result="effect1_dropShadow_15_82"/>
            <feBlend mode="normal" in="SourceGraphic" in2="effect1_dropShadow_15_82" result="shape"/>
        </filter>
        <clipPath id="azclip0_15_82">
            <rect width="24" height="24"/>
        </clipPath>
    </defs>
</symbol><symbol viewBox="0 0 78 78" id="settings" xmlns="http://www.w3.org/2000/svg">
    <path d="M63.6611 50.349L57.7656 46.1565C58.7557 42.5159 58.7501 38.6761 57.7493 35.0383L63.6643 30.8978L58.9421 22.7273L52.3641 25.7368C49.7053 23.0589 46.3762 21.144 42.7246 20.1923L42.0973 13H32.6528L32.0256 20.1923C28.3747 21.1453 25.0467 23.0613 22.3893 25.74L15.8081 22.7305L11.0891 30.901L17.0041 35.0415C16.0028 38.678 15.9961 42.5166 16.9846 46.1565L11.0891 50.349L15.8081 58.4805L22.3893 55.4678C25.0471 58.1453 28.375 60.0602 32.0256 61.0123L32.6528 68.2045H42.0973L42.7246 61.0123C46.3751 60.06 49.703 58.1452 52.3608 55.4678L58.9421 58.4805L63.6643 50.3523L63.6611 50.349ZM43.8913 9.70129C44.3097 9.70085 44.712 9.86176 45.0147 10.1505C45.3174 10.4393 45.4971 10.8337 45.5163 11.2515L46.0948 17.8653C48.4973 18.7808 50.7386 20.0732 52.7346 21.6938L58.7471 18.889C59.1184 18.698 59.5491 18.6572 59.9497 18.7752C60.3503 18.8932 60.6901 19.1609 60.8986 19.5228L67.4148 30.8003C67.6242 31.1618 67.6863 31.59 67.5883 31.9961C67.4902 32.4022 67.2396 32.7549 66.8883 32.981L61.4478 36.79C61.8638 39.3835 61.8508 41.9673 61.4511 44.4568L66.8883 48.2593C67.2404 48.4855 67.4917 48.8388 67.5898 49.2457C67.6878 49.6525 67.6252 50.0815 67.4148 50.4433L60.8986 61.6785C60.6901 62.0404 60.3503 62.3081 59.9497 62.4261C59.5491 62.5441 59.1184 62.5034 58.7471 62.3123L52.7346 59.5075C50.7781 61.1 48.5486 62.4 46.0948 63.3393L45.5163 69.953C45.4963 70.3704 45.3162 70.7639 45.0136 71.052C44.711 71.3401 44.3091 71.5005 43.8913 71.5H30.8588C30.441 71.5005 30.0391 71.3401 29.7365 71.052C29.4339 70.7639 29.2539 70.3704 29.2338 69.953L28.6553 63.3393C26.2527 62.4226 24.0114 61.1291 22.0156 59.5075L16.0031 62.3123C15.6318 62.5046 15.2006 62.5464 14.7993 62.429C14.398 62.3116 14.0574 62.0439 13.8483 61.6818L7.33532 50.44C7.12595 50.0786 7.06383 49.6503 7.16187 49.2442C7.25991 48.8382 7.51058 48.4854 7.86182 48.2593L13.2991 44.4535C12.8919 41.9142 12.8919 39.3262 13.2991 36.7868L7.86507 32.981C7.51469 32.755 7.26462 32.4028 7.16662 31.9975C7.06862 31.5922 7.13018 31.1647 7.33857 30.8035L13.8451 19.5228C14.0536 19.1601 14.394 18.8918 14.7953 18.7737C15.1967 18.6557 15.6281 18.697 15.9998 18.889L22.0123 21.6938C24.0083 20.0732 26.2496 18.7808 28.6521 17.8653L29.2306 11.2515C29.2498 10.8337 29.4295 10.4393 29.7322 10.1505C30.0349 9.86176 30.4372 9.70085 30.8556 9.70129H43.8881H43.8913ZM37.3751 29.25C40.3919 29.25 43.2852 30.4485 45.4184 32.5817C47.5516 34.7149 48.7501 37.6082 48.7501 40.625C48.7501 43.6419 47.5516 46.5352 45.4184 48.6684C43.2852 50.8016 40.3919 52 37.3751 52C34.3582 52 31.465 50.8016 29.3317 48.6684C27.1985 46.5352 26.0001 43.6419 26.0001 40.625C26.0001 37.6082 27.1985 34.7149 29.3317 32.5817C31.465 30.4485 34.3582 29.25 37.3751 29.25ZM37.3751 32.5C35.2202 32.5 33.1536 33.3561 31.6298 34.8798C30.1061 36.4035 29.2501 38.4702 29.2501 40.625C29.2501 42.7799 30.1061 44.8466 31.6298 46.3703C33.1536 47.894 35.2202 48.75 37.3751 48.75C39.53 48.75 41.5966 47.894 43.1203 46.3703C44.644 44.8466 45.5001 42.7799 45.5001 40.625C45.5001 38.4702 44.644 36.4035 43.1203 34.8798C41.5966 33.3561 39.53 32.5 37.3751 32.5Z"/>
</symbol><symbol viewBox="0 0 24 24" id="shopping-bag" xmlns="http://www.w3.org/2000/svg">
    <g clip-path="url(#bbclip0_4_520)">
        <path d="M23.8454 8.2243C23.7281 8.10907 23.5642 8.05443 23.4012 8.07625H17.0343V5.26296C17.0343 2.4826 14.7804 0.228706 12.0001 0.228706C9.21971 0.228706 6.96582 2.4826 6.96582 5.26296V8.07625H0.598861C0.421164 8.07625 0.243523 8.07625 0.154646 8.2243C0.0352739 8.33903 -0.0201042 8.50511 0.00659291 8.66852L2.22761 20.81C2.53789 22.5037 4.00034 23.7431 5.72199 23.7713H18.278C20.0046 23.7289 21.464 22.4797 21.7724 20.7804L23.9934 8.66852C24.0201 8.50511 23.9648 8.33903 23.8454 8.2243ZM8.1503 5.26296C8.1503 3.13683 9.87388 1.41324 12 1.41324C14.1261 1.41324 15.8497 3.13683 15.8497 5.26296V8.07625H8.1503V5.26296ZM20.5879 20.6323C20.3884 21.7547 19.4179 22.5759 18.278 22.5868H5.72199C4.58212 22.5759 3.61161 21.7547 3.41215 20.6323L1.30959 9.26079H22.6904L20.5879 20.6323Z"/>
        <path d="M16.442 15.0354C16.7691 15.0354 17.0343 14.7702 17.0343 14.4431V12.6663C17.0343 12.3392 16.7691 12.074 16.442 12.074C16.1149 12.074 15.8497 12.3392 15.8497 12.6663V14.4431C15.8497 14.7702 16.1149 15.0354 16.442 15.0354Z"/>
        <path d="M7.55809 15.0354C7.8852 15.0354 8.15036 14.7702 8.15036 14.4431V12.6663C8.15036 12.3392 7.8852 12.074 7.55809 12.074C7.23098 12.074 6.96582 12.3392 6.96582 12.6663V14.4431C6.96582 14.7702 7.23098 15.0354 7.55809 15.0354Z"/>
    </g>
    <defs>
        <clipPath id="bbclip0_4_520">
            <rect width="24" height="24"/>
        </clipPath>
    </defs>
</symbol><symbol viewBox="0 0 29 16" id="slider-arrow" xmlns="http://www.w3.org/2000/svg">
    <path d="M29 8L0.999999 8M0.999999 8L8.18919 0.999999M0.999999 8L8.18919 15"/>
</symbol><symbol viewBox="0 0 72 84" id="success" xmlns="http://www.w3.org/2000/svg">
    <path fill-rule="evenodd" clip-rule="evenodd" d="M53.1219 30.8761C53.4013 31.1547 53.623 31.4858 53.7742 31.8502C53.9254 32.2147 54.0033 32.6054 54.0033 33.0001C54.0033 33.3947 53.9254 33.7854 53.7742 34.1499C53.623 34.5143 53.4013 34.8454 53.1219 35.1241L35.1219 53.124C34.8433 53.4034 34.5122 53.6251 34.1477 53.7763C33.7833 53.9276 33.3925 54.0054 32.9979 54.0054C32.6033 54.0054 32.2126 53.9276 31.8481 53.7763C31.4837 53.6251 31.1526 53.4034 30.8739 53.124L21.8739 44.1241C21.595 43.8451 21.3737 43.514 21.2228 43.1496C21.0718 42.7851 20.9941 42.3945 20.9941 42C20.9941 41.6056 21.0718 41.215 21.2228 40.8505C21.3737 40.4861 21.595 40.155 21.8739 39.876C22.1529 39.5971 22.484 39.3759 22.8484 39.2249C23.2129 39.074 23.6035 38.9963 23.9979 38.9963C24.3924 38.9963 24.783 39.074 25.1474 39.2249C25.5119 39.3759 25.843 39.5971 26.1219 39.876L32.9979 46.7581L48.8739 30.8761C49.1526 30.5967 49.4837 30.375 49.8481 30.2238C50.2126 30.0725 50.6033 29.9947 50.9979 29.9947C51.3925 29.9947 51.7833 30.0725 52.1477 30.2238C52.5122 30.375 52.8433 30.5967 53.1219 30.8761Z"/>
    <path fill-rule="evenodd" clip-rule="evenodd" d="M12 0H60C63.1826 0 66.2348 1.26428 68.4853 3.51472C70.7357 5.76516 72 8.8174 72 12V72C72 75.1826 70.7357 78.2348 68.4853 80.4853C66.2348 82.7357 63.1826 84 60 84H12C8.8174 84 5.76515 82.7357 3.51472 80.4853C1.26428 78.2348 0 75.1826 0 72V12C0 8.8174 1.26428 5.76516 3.51472 3.51472C5.76515 1.26428 8.8174 0 12 0ZM12 6C10.4087 6 8.88258 6.63214 7.75736 7.75736C6.63214 8.88258 6 10.4087 6 12V72C6 73.5913 6.63214 75.1174 7.75736 76.2426C8.88258 77.3679 10.4087 78 12 78H60C61.5913 78 63.1174 77.3679 64.2426 76.2426C65.3679 75.1174 66 73.5913 66 72V12C66 10.4087 65.3679 8.88258 64.2426 7.75736C63.1174 6.63214 61.5913 6 60 6H12Z"/>
</symbol><symbol viewBox="0 0 24 24" id="target" xmlns="http://www.w3.org/2000/svg">
    <path fill-rule="evenodd" clip-rule="evenodd" d="M12 22C17.5228 22 22 17.5228 22 12C22 6.47715 17.5228 2 12 2C6.47715 2 2 6.47715 2 12C2 17.5228 6.47715 22 12 22Z" stroke-width="2" stroke-linecap="round" stroke-linejoin="round"/>
    <path fill-rule="evenodd" clip-rule="evenodd" d="M12 18C15.3137 18 18 15.3137 18 12C18 8.68629 15.3137 6 12 6C8.68629 6 6 8.68629 6 12C6 15.3137 8.68629 18 12 18Z" stroke-width="2" stroke-linecap="round" stroke-linejoin="round"/>
    <path fill-rule="evenodd" clip-rule="evenodd" d="M12 14C13.1046 14 14 13.1046 14 12C14 10.8954 13.1046 10 12 10C10.8954 10 10 10.8954 10 12C10 13.1046 10.8954 14 12 14Z" stroke-width="2" stroke-linecap="round" stroke-linejoin="round"/>
</symbol><symbol viewBox="0 0 23 23" id="twitter" xmlns="http://www.w3.org/2000/svg">
    <path d="M20.2712 5.16525L20.2598 5.12109C21.2343 4.53688 22.0211 3.5738 22.3711 2.4707C21.4584 3.01367 20.3904 3.42561 19.3164 3.63867C18.4552 2.7211 17.3061 2.15625 15.9473 2.15625C13.3429 2.15625 11.1855 4.26475 11.1855 6.87305C11.1855 7.24419 11.238 7.60752 11.3203 7.95117V7.99609C7.43875 7.77436 3.92429 5.80031 1.61719 2.96484C1.21231 3.66248 0.988281 4.65939 0.988281 5.52539C0.988281 6.87305 1.78852 8.67805 3.05469 9.52344V9.61328C2.29865 9.58278 1.52429 9.06195 0.898438 8.71484C0.898438 8.73546 0.92584 8.76026 0.92584 8.78088C0.92584 11.0696 2.6034 13.0436 4.76172 13.4766C4.38559 13.5761 3.85582 13.6562 3.45898 13.6562C3.15361 13.6562 2.84877 13.5765 2.56055 13.5215C3.16102 15.3978 4.89648 16.6211 6.96289 16.6211V16.666C5.35446 17.913 3.31577 18.7773 1.12305 18.7773C0.742154 18.7773 0.269531 18.7324 0 18.6875C2.08622 20.0277 4.56631 20.8438 7.23242 20.8438C15.9102 20.8438 20.6641 13.7012 20.6641 7.45703V6.82812C21.5871 6.16144 22.3686 5.26098 23 4.3125C23 4.3125 21.3439 5.09724 20.2712 5.16525ZM18.8672 7.45703C18.8672 8.80523 18.6031 10.221 18.1035 11.5512C17.5785 12.9492 16.8227 14.2107 15.8574 15.3005C14.3434 17.0096 11.6181 19.0469 7.23242 19.0469C7.10354 19.0469 6.97488 19.0446 6.84623 19.0402C7.26966 18.7945 7.67661 18.5211 8.06384 18.2209L8.75977 17.6814V16.8008V16.6211V14.8242L8.0195 14.816C7.21005 14.807 6.55859 14.1483 6.55859 13.3388V11.8696L5.58689 11.6502C5.1569 11.5531 4.85156 11.1711 4.85156 10.7303V9.61328V9.47852L4.8291 8.5626L4.02999 8.02907C3.6849 7.73874 3.37215 7.32406 3.14934 6.87529C5.50724 8.59481 8.30758 9.62379 11.2178 9.79005L13.1172 9.89854V7.99609V7.95117V7.73892L13.0677 7.5325C13.0111 7.29626 12.9824 7.07439 12.9824 6.87305C12.9824 6.09931 13.2911 5.3687 13.8517 4.81576C14.4156 4.25949 15.1598 3.95312 15.9473 3.95312C16.7434 3.95312 17.4362 4.26106 18.0063 4.86841L18.4647 5.35684L18.5202 5.57112L18.5316 5.61528L18.8672 6.91262V7.45703Z"/>
</symbol><symbol enable-background="new 0 0 780 500" viewBox="0 0 780 500" xml:space="preserve" id="unionpay" xmlns="http://www.w3.org/2000/svg">
    <path d="M40,0h700c22.092,0,40,17.909,40,40v420c0,22.092-17.908,40-40,40H40c-22.091,0-40-17.908-40-40V40   C0,17.909,17.909,0,40,0z"/>
    <path d="m216.4 69.791h142.39c19.87 0 32.287 16.406 27.63 36.47l-66.333 287.48c-4.656 20.063-24.629 36.47-44.498 36.47h-142.39c-19.87 0-32.287-16.406-27.63-36.47l66.331-287.48c4.657-20.168 24.526-36.47 44.395-36.47h0.104z"/>
    <path d="m346.34 69.791h163.82c19.868 0 10.865 16.406 6.209 36.47l-66.334 287.48c-4.657 20.063-3.208 36.47-23.077 36.47h-163.81c-19.972 0-32.287-16.406-27.527-36.47l66.334-287.48c4.656-20.168 24.524-36.47 44.498-36.47h-0.104z"/>
    <path d="m504.41 69.791h142.4c19.869 0 32.287 16.406 27.629 36.47l-66.332 287.48c-4.658 20.063-24.631 36.47-44.499 36.47h-142.39c-19.973 0-32.287-16.406-27.63-36.47l66.333-287.48c4.656-20.168 24.525-36.47 44.394-36.47h0.104z"/>
    <path d="m480.5 340.81h13.453l3.829-13.063h-13.351l-3.931 13.063zm10.762-35.95l-4.657 15.467s5.071-2.613 7.865-3.449c2.794-0.627 6.933-1.15 6.933-1.15l3.208-10.763h-13.451l0.102-0.105zm6.726-22.153l-4.449 14.839s4.967-2.3 7.761-3.029c2.794-0.732 6.933-0.941 6.933-0.941l3.208-10.764h-13.349l-0.104-0.105zm29.701 0l-17.386 57.997h4.657l-3.622 12.018h-4.657l-1.138 3.657h-16.559l1.14-3.657h-33.529l3.311-11.076h3.415l17.594-58.938 3.518-11.913h16.868l-1.76 5.956s4.449-3.239 8.797-4.39c4.243-1.148 28.665-1.566 28.665-1.566l-3.622 11.809h-5.795l0.103 0.103z"/>
    <path d="m534.59 270.79h18.006l0.207 6.792c-0.103 1.149 0.828 1.672 3.001 1.672h3.622l-3.311 11.183h-9.729c-8.382 0.627-11.59-3.03-11.383-7.106l-0.311-12.437-0.102-0.104zm2.216 53.2h-17.178l2.896-9.927h19.662l2.794-9.092h-19.351l3.311-11.182h53.812l-3.312 11.182h-18.109l-2.794 9.092h18.109l-3.002 9.927h-19.558l-3.518 4.18h7.968l1.966 12.54c0.207 1.254 0.207 2.09 0.62 2.613 0.415 0.418 2.795 0.627 4.14 0.627h2.38l-3.725 12.227h-6.106c-0.93 0-2.38-0.104-4.346-0.104-1.863-0.21-3.104-1.255-4.346-1.882-1.139-0.522-2.794-1.881-3.208-4.284l-1.863-12.54-8.899 12.331c-2.795 3.866-6.622 6.897-13.143 6.897h-12.418l3.311-10.869h4.761c1.346 0 2.588-0.521 3.52-1.045 0.931-0.418 1.758-0.836 2.586-2.193l13.04-18.498zm-187.9-27.2h45.429l-3.312 10.973h-18.109l-2.793 9.299h18.627l-3.415 11.287h-18.524l-4.553 15.152c-0.517 1.672 4.45 1.881 6.209 1.881l9.313-1.254-3.726 12.54h-20.904c-1.654 0-2.896-0.209-4.76-0.627-1.76-0.418-2.587-1.254-3.311-2.403-0.726-1.254-1.968-2.195-1.14-4.912l6.002-20.063h-10.348l3.415-11.495h10.348l2.794-9.3h-10.347l3.312-10.974-0.207-0.104zm31.387-19.835h18.627l-3.415 11.39h-25.457l-2.794 2.404c-1.242 1.15-1.552 0.732-3.105 1.568-1.447 0.73-4.449 2.193-8.382 2.193h-8.175l3.311-10.972h2.484c2.07 0 3.52-0.21 4.243-0.627 0.828-0.522 1.76-1.672 2.69-3.554l4.656-8.568h18.525l-3.208 6.27v-0.104zm35.107 18.81s5.07-4.701 13.764-6.164c1.966-0.418 14.384-0.211 14.384-0.211l1.863-6.27h-26.182l-3.83 12.75 1e-3 -0.105zm24.629 4.807h-25.975l-1.552 5.329h22.56c2.69-0.313 3.208 0.104 3.415-0.104l1.655-5.225h-0.103zm-33.735-29.678h15.833l-2.276 8.047s4.967-4.075 8.485-5.539c3.519-1.254 11.383-2.508 11.383-2.508l25.664-0.104-8.796 29.469c-1.449 5.016-3.208 8.256-4.243 9.823-0.93 1.463-2.07 2.821-4.346 4.075-2.173 1.15-4.141 1.881-6.002 1.986-1.656 0.104-4.347 0.209-7.865 0.209h-24.732l-6.934 23.303c-0.62 2.299-0.931 3.447-0.517 4.074 0.31 0.523 1.241 1.15 2.38 1.15l10.865-1.045-3.726 12.749h-12.21c-3.933 0-6.727-0.104-8.693-0.21-1.862-0.208-3.83 0-5.175-1.044-1.138-1.045-2.896-2.403-2.794-3.763 0.104-1.254 0.621-3.344 1.45-6.27l22.249-74.402z"/>
    <path d="m452.43 317.79l-1.449 7.105c-0.619 2.194-1.138 3.867-2.794 5.33-1.759 1.463-3.725 3.03-8.484 3.03l-8.796 0.418-0.104 7.942c-0.103 2.193 0.519 1.984 0.828 2.402 0.414 0.418 0.724 0.523 1.138 0.732l2.794-0.21 8.384-0.417-3.52 11.704h-9.624c-6.726 0-11.797-0.21-13.35-1.463-1.655-1.046-1.862-2.3-1.862-4.599l0.62-31.141h15.42l-0.207 6.374h3.725c1.242 0 2.175-0.104 2.691-0.418s0.828-0.836 1.035-1.567l1.552-5.016h12.108l-0.105-0.206zm-219.37-156c-0.517 2.508-10.451 48.592-10.451 48.592-2.174 9.3-3.726 15.989-8.9 20.273-3.001 2.508-6.52 3.657-10.555 3.657-6.52 0-10.245-3.239-10.866-9.404l-0.104-2.09s1.966-12.436 1.966-12.54c0 0 10.349-42.009 12.212-47.548 0.103-0.313 0.103-0.522 0.103-0.627-20.18 0.21-23.801 0-24.008-0.313-0.104 0.418-0.621 3.03-0.621 3.03l-10.556 47.34-0.932 3.97-1.758 13.168c0 3.866 0.724 7.105 2.277 9.718 4.863 8.569 18.627 9.823 26.388 9.823 10.038 0 19.455-2.195 25.767-6.061 11.073-6.584 13.97-16.929 16.454-26.02l1.242-4.703s10.659-43.576 12.522-49.219c0.103-0.314 0.103-0.523 0.207-0.627-14.695 0.104-18.938 0-20.387-0.314v-0.105zm59.03 86.623c-7.141-0.105-9.728-0.105-18.11 0.313l-0.311-0.627c0.724-3.24 1.552-6.374 2.173-9.614l1.035-4.389c1.552-6.792 3.001-14.839 3.208-17.242 0.207-1.463 0.62-5.12-3.519-5.12-1.759 0-3.518 0.835-5.38 1.671-1.036 3.658-3.002 13.899-4.037 18.497-2.07 9.823-2.173 10.972-3.104 15.78l-0.621 0.626c-7.347-0.104-9.934-0.104-18.42 0.314l-0.414-0.732c1.449-5.852 2.794-11.704 4.14-17.556 3.518-15.78 4.45-21.84 5.38-29.887l0.725-0.418c8.279-1.149 10.245-1.463 19.248-3.239l0.724 0.836-1.345 5.016c1.552-0.94 3.001-1.881 4.553-2.613 4.243-2.09 8.9-2.717 11.487-2.717 3.932 0 8.279 1.15 10.038 5.748 1.656 4.075 0.62 9.091-1.656 19.019l-1.138 5.016c-2.277 11.077-2.69 13.062-3.933 20.586l-0.827 0.627 0.104 0.105zm29.057 0.027c-4.346 0-7.14-0.104-9.83 0-2.691 0-5.278 0.21-9.314 0.314l-0.207-0.314-0.207-0.418c1.138-4.18 1.656-5.643 2.277-7.106 0.517-1.463 1.034-2.926 2.07-7.21 1.241-5.539 2.069-9.405 2.586-12.854 0.621-3.24 0.932-6.06 1.346-9.3l0.31-0.209 0.31-0.313c4.347-0.627 7.038-1.045 9.832-1.463s5.691-0.94 10.141-1.776l0.207 0.418 0.103 0.418-2.482 10.345c-0.828 3.449-1.656 6.897-2.38 10.346-1.554 7.315-2.277 10.032-2.587 12.017-0.414 1.881-0.519 2.822-1.14 6.584l-0.414 0.313-0.414 0.314-0.207-0.106zm45.942-25.675c-0.31 1.881-1.966 8.883-4.139 11.809-1.553 2.194-3.312 3.553-5.382 3.553-0.62 0-4.14 0-4.242-5.33 0-2.612 0.517-5.33 1.138-8.255 1.863-8.465 4.14-15.466 9.831-15.466 4.45 0 4.76 5.225 2.794 13.689zm18.73 0.836c2.483-11.077 0.518-16.302-1.862-19.437-3.726-4.807-10.348-6.374-17.178-6.374-4.141 0-13.867 0.418-21.525 7.524-5.484 5.12-8.071 12.122-9.52 18.81-1.554 6.792-3.312 19.019 7.864 23.617 3.414 1.463 8.382 1.88 11.59 1.88 8.176 0 16.558-2.298 22.87-8.986 4.863-5.434 7.036-13.585 7.864-17.034h-0.103zm174.43 26.08c-8.693-0.104-11.176-0.104-19.146 0.314l-0.517-0.627c2.173-8.256 4.346-16.616 6.312-24.976 2.483-10.868 3.104-15.466 3.933-21.84l0.62-0.522c8.59-1.254 10.97-1.567 19.973-3.239l0.207 0.731c-1.656 6.897-3.208 13.69-4.864 20.482-3.311 14.317-4.45 21.632-5.69 29.156l-0.828 0.627v-0.106z"/>
    <path d="m547.75 224.16c-0.414 1.776-2.07 8.882-4.243 11.808-1.449 2.09-4.967 3.449-6.933 3.449-0.621 0-4.036 0-4.243-5.225 0-2.613 0.517-5.33 1.138-8.256 1.863-8.255 4.141-15.257 9.831-15.257 4.45 0 6.416 5.12 4.45 13.585v-0.104zm17.075 0.836c2.482-11.077-7.658-0.94-9.21-4.598-2.484-5.748-0.933-17.243-10.866-21.109-3.829-1.568-12.832 0.418-20.49 7.524-5.381 5.016-8.072 12.017-9.52 18.705-1.554 6.688-3.312 19.02 7.76 23.304 3.52 1.567 6.727 1.985 9.935 1.776 11.178-0.627 19.662-17.661 25.976-24.349 4.861-5.329 5.69 1.986 6.415-1.253zm-129.94 23.413c-7.14-0.105-9.624-0.105-18.006 0.313l-0.311-0.627c0.725-3.24 1.553-6.374 2.276-9.614l0.931-4.389c1.554-6.792 3.105-14.839 3.208-17.242 0.207-1.463 0.621-5.12-3.415-5.12-1.759 0-3.62 0.835-5.38 1.671-0.932 3.658-3.002 13.899-4.037 18.497-1.966 9.823-2.173 10.972-3.104 15.78l-0.621 0.626c-7.347-0.104-9.934-0.104-18.42 0.314l-0.414-0.732c1.449-5.852 2.794-11.704 4.14-17.556 3.519-15.78 4.347-21.84 5.38-29.887l0.621-0.418c8.28-1.149 10.35-1.463 19.248-3.239l0.726 0.836-1.242 5.016c1.449-0.94 3.001-1.881 4.45-2.613 4.243-2.09 8.899-2.717 11.485-2.717 3.934 0 8.177 1.15 10.038 5.748 1.656 4.075 0.519 9.091-1.759 19.019l-1.138 5.016c-2.38 11.077-2.69 13.062-3.934 20.586l-0.826 0.627 0.104 0.105zm62.001-86.519l-6.002 0.105c-15.523 0.209-21.732 0.104-24.215-0.209-0.207 1.15-0.621 3.135-0.621 3.135s-5.588 25.916-5.588 26.02c0 0-13.246 55.176-13.867 57.788 13.556-0.209 19.041-0.209 21.421 0.105 0.519-2.613 3.622-17.974 3.726-17.974 0 0 2.69-11.286 2.795-11.704 0 0 0.826-1.15 1.654-1.672h1.242c11.694 0 24.836 0 35.186-7.628 7.036-5.225 11.797-13.063 13.97-22.468 0.517-2.299 0.931-5.016 0.931-7.837 0-3.658-0.724-7.21-2.794-10.032-5.279-7.42-15.731-7.524-27.838-7.629zm7.761 27.066c-1.241 5.747-4.967 10.659-9.727 12.958-3.933 1.985-8.693 2.194-13.66 2.194h-3.208l0.207-1.254s5.899-25.916 5.899-25.811l0.206-1.359 0.104-1.045 2.38 0.21s12.211 1.044 12.418 1.044c4.759 1.881 6.83 6.688 5.381 13.063zm127.21 8.666l-0.723-0.836c-8.797 1.776-10.453 2.09-18.525 3.24l-0.619 0.626c0 0.105-0.104 0.21-0.104 0.418v-0.104c-6.002 14.107-5.9 11.077-10.762 22.154 0-0.523 0-0.836-0.105-1.359l-1.242-24.035-0.723-0.836c-9.314 1.777-9.521 2.09-18.007 3.24l-0.621 0.627c-0.104 0.313-0.104 0.627-0.104 0.94l0.104 0.105c1.035 5.538 0.828 4.284 1.863 12.958 0.517 4.284 1.138 8.569 1.655 12.749 0.828 7.106 1.346 10.554 2.381 21.318-5.797 9.613-7.142 13.271-12.729 21.734l0.31 0.836c8.384-0.312 10.246-0.312 16.455-0.312l1.346-1.568c4.656-10.135 40.256-71.79 40.256-71.79l-0.106-0.105zm-302.72 6.922c4.76-3.344 5.38-7.942 1.345-10.345-4.036-2.404-11.176-1.672-15.937 1.672-4.76 3.24-5.277 7.837-1.241 10.345 3.932 2.3 11.072 1.672 15.833-1.672z"/>
    <path d="m590.33 270.9l-6.935 12.019c-2.173 4.075-6.312 7.21-12.728 7.21l-11.073-0.209 3.208-10.868h2.173c1.138 0 1.966-0.104 2.587-0.418 0.621-0.209 0.933-0.627 1.449-1.254l4.14-6.583h17.282l-0.103 0.103z"/>
</symbol><symbol viewBox="0 0 24 24" id="user" xmlns="http://www.w3.org/2000/svg">
    <path d="M20 21V19C20 16.7909 18.2091 15 16 15H8C5.79086 15 4 16.7909 4 19V21" stroke-width="2" stroke-linecap="round" stroke-linejoin="round"/>
    <path fill-rule="evenodd" clip-rule="evenodd" d="M12 11C14.2091 11 16 9.20914 16 7C16 4.79086 14.2091 3 12 3C9.79086 3 8 4.79086 8 7C8 9.20914 9.79086 11 12 11Z" stroke-width="2" stroke-linecap="round" stroke-linejoin="round"/>
</symbol><symbol viewBox="0 0 780 500" id="visa" xmlns="http://www.w3.org/2000/svg">
    <g clip-path="url(#biclip0_6278_125851)">
        <path d="M40 0H740C762.092 0 780 17.909 780 40V460C780 482.092 762.092 500 740 500H40C17.909 500 0 482.092 0 460V40C0 17.909 17.909 0 40 0Z"/>
        <path d="M489.823 143.111C442.988 143.111 401.134 167.393 401.134 212.256C401.134 263.706 475.364 267.259 475.364 293.106C475.364 303.989 462.895 313.731 441.6 313.731C411.377 313.731 388.789 300.119 388.789 300.119L379.123 345.391C379.123 345.391 405.145 356.889 439.692 356.889C490.898 356.889 531.19 331.415 531.19 285.784C531.19 231.419 456.652 227.971 456.652 203.981C456.652 195.455 466.887 186.114 488.122 186.114C512.081 186.114 531.628 196.014 531.628 196.014L541.087 152.289C541.087 152.289 519.818 143.111 489.823 143.111ZM61.3294 146.411L60.1953 153.011C60.1953 153.011 79.8988 156.618 97.645 163.814C120.495 172.064 122.122 176.868 125.971 191.786L167.905 353.486H224.118L310.719 146.411H254.635L198.989 287.202L176.282 167.861C174.199 154.203 163.651 146.411 150.74 146.411H61.3294ZM333.271 146.411L289.275 353.486H342.756L386.598 146.411H333.271ZM631.554 146.411C618.658 146.411 611.825 153.318 606.811 165.386L528.458 353.486H584.542L595.393 322.136H663.72L670.318 353.486H719.805L676.633 146.411H631.554ZM638.848 202.356L655.473 280.061H610.935L638.848 202.356Z"/>
    </g>
    <defs>
        <clipPath id="biclip0_6278_125851">
            <rect width="780" height="500"/>
        </clipPath>
    </defs>
</symbol><symbol viewBox="0 0 114 27" id="yookassa" xmlns="http://www.w3.org/2000/svg">
    <path d="M59.4687 7.43017H55.7871L53.1819 12.0086H51.8408L51.7981 2.10004H48.313V19.9952H51.7981L51.8408 15.0837H53.1733L56.6328 19.9952H60.4937L55.9836 13.4863L59.4687 7.43017Z"/>
    <path d="M85.8459 13.3241C85.1379 12.8659 84.3705 12.5066 83.5652 12.2564L82.7964 11.9659L82.5914 11.8891C82.1131 11.7097 81.6091 11.5218 81.592 11.0349C81.5875 10.8906 81.6196 10.7476 81.6853 10.6192C81.7511 10.4907 81.8483 10.381 81.9679 10.3003C82.2202 10.1263 82.5159 10.0258 82.822 10.0099C83.4895 9.96378 84.151 10.161 84.6842 10.5651L84.7781 10.6249L86.6402 8.48086L86.5463 8.40398C86.3145 8.19731 86.0627 8.01419 85.7946 7.8573C85.3144 7.58254 84.7919 7.38915 84.2485 7.28499C83.4657 7.11846 82.6567 7.11846 81.8739 7.28499C81.1171 7.38516 80.3991 7.67942 79.7897 8.13918C79.4 8.44412 79.0741 8.82287 78.8309 9.25377C78.5876 9.68467 78.4315 10.1593 78.3717 10.6505C78.2649 11.5369 78.4901 12.4316 79.0038 13.1618C79.6863 13.9175 80.5784 14.4528 81.5664 14.6993L81.7201 14.7506L82.0704 14.8702C83.3345 15.2973 83.6933 15.4681 83.8983 15.7244C83.9937 15.8533 84.0473 16.0083 84.0521 16.1685C84.0521 16.775 83.3089 17.0227 82.805 17.1765C82.4526 17.2427 82.0903 17.2359 81.7407 17.1565C81.391 17.0772 81.0613 16.927 80.772 16.7152C80.3037 16.4021 79.9029 15.9984 79.5932 15.5279C79.3967 15.7329 77.4663 17.6377 77.5004 17.6719L77.5602 17.7573C78.4906 18.9219 79.7937 19.7303 81.2503 20.0465C81.5832 20.1109 81.9199 20.1537 82.2583 20.1747H82.6085C83.7591 20.1988 84.8864 19.848 85.8202 19.1753C86.4518 18.7285 86.9365 18.1042 87.2126 17.3815C87.3805 16.8963 87.44 16.3802 87.3869 15.8696C87.3338 15.359 87.1693 14.8662 86.9051 14.426C86.635 13.987 86.2738 13.6113 85.8459 13.3241V13.3241Z"/>
    <path d="M97.1042 13.324C96.3992 12.8658 95.6347 12.5066 94.8321 12.2563L94.0547 11.9658L93.8583 11.889C93.3714 11.7096 92.876 11.5217 92.8503 11.0348C92.8526 10.8908 92.8886 10.7494 92.9554 10.6219C93.0221 10.4943 93.1178 10.3841 93.2347 10.3002C93.4871 10.1262 93.7828 10.0257 94.0889 10.0098C94.7561 9.96523 95.4171 10.1623 95.951 10.565L96.0364 10.6248L97.8986 8.48076L97.8132 8.40388C97.5799 8.19518 97.325 8.01192 97.0529 7.8572C96.5756 7.58274 96.056 7.38935 95.5154 7.28489C94.7298 7.11817 93.9179 7.11817 93.1322 7.28489C92.3762 7.38803 91.6589 7.682 91.048 8.13908C90.6557 8.44117 90.3271 8.81779 90.0808 9.24729C89.8345 9.67679 89.6755 10.1507 89.613 10.6418C89.5011 11.5286 89.7268 12.425 90.2451 13.1532C90.9275 13.9089 91.8197 14.4441 92.8076 14.6907L92.9528 14.7419L93.3031 14.8615C94.5758 15.2886 94.9346 15.4595 95.1396 15.7157C95.238 15.8425 95.2893 15.9995 95.2848 16.1599C95.2848 16.7664 94.5502 17.0141 94.0462 17.1678C93.6924 17.2342 93.3288 17.2275 92.9778 17.1482C92.6267 17.0689 92.2956 16.9186 92.0047 16.7066C91.5402 16.3889 91.1402 15.986 90.8259 15.5193C90.638 15.7243 88.7075 17.6291 88.7332 17.6633L88.8015 17.7487C89.7318 18.9132 91.035 19.7217 92.4916 20.0379C92.8244 20.1028 93.1611 20.1456 93.4995 20.166H93.8497C95.0004 20.1901 96.1277 19.8394 97.0615 19.1666C97.6931 18.7199 98.1777 18.0955 98.4538 17.3728C98.6218 16.8877 98.6813 16.3716 98.6282 15.861C98.575 15.3503 98.4105 14.8575 98.1463 14.4174C97.8796 13.9837 97.5245 13.6112 97.1042 13.324V13.324Z"/>
    <path d="M70.9145 7.43019V8.66022H70.7607C69.8068 7.70504 68.5145 7.16481 67.1646 7.15685C66.3371 7.1405 65.5154 7.29862 64.753 7.62093C63.9907 7.94324 63.3047 8.4225 62.7399 9.02752C61.6008 10.3032 60.99 11.9646 61.0315 13.6743C60.9874 15.4127 61.597 17.1044 62.7399 18.415C63.2913 19.0204 63.9664 19.5001 64.7196 19.8214C65.4728 20.1427 66.2862 20.2981 67.1048 20.2772C68.4564 20.2518 69.7562 19.753 70.7778 18.8677H70.9145V19.9696H74.5362V7.43019H70.9145ZM71.0939 13.7426C71.1302 14.7531 70.7926 15.7416 70.1457 16.5187C69.8356 16.866 69.453 17.1408 69.025 17.3238C68.5969 17.5069 68.1339 17.5936 67.6686 17.5779C67.2173 17.5855 66.7702 17.4911 66.3605 17.3018C65.9508 17.1125 65.5891 16.8331 65.3025 16.4846C64.6632 15.6913 64.3352 14.6921 64.38 13.6743C64.3509 12.6871 64.6853 11.7236 65.3196 10.9665C65.6116 10.6232 65.9759 10.3487 66.3864 10.1626C66.797 9.97657 67.2435 9.88356 67.6942 9.89025C68.1564 9.87586 68.616 9.96416 69.0399 10.1488C69.4638 10.3334 69.8415 10.6098 70.1457 10.958C70.7925 11.7386 71.1299 12.7296 71.0939 13.7426Z"/>
    <path d="M110.309 7.43013V8.66015H110.156C109.204 7.70705 107.915 7.16699 106.568 7.15679C105.739 7.14137 104.917 7.29988 104.153 7.62209C103.39 7.9443 102.702 8.42306 102.135 9.02745C100.996 10.3031 100.385 11.9645 100.427 13.6742C100.382 15.4126 100.992 17.1043 102.135 18.415C102.686 19.0204 103.361 19.5 104.115 19.8213C104.868 20.1426 105.681 20.2981 106.5 20.2771C107.851 20.2517 109.151 19.7529 110.173 18.8677H110.309V19.9696H113.931V7.43013H110.309ZM110.489 13.7426C110.529 14.7537 110.191 15.7435 109.541 16.5187C109.231 16.8659 108.848 17.1408 108.42 17.3238C107.992 17.5068 107.529 17.5936 107.064 17.5779C106.612 17.5855 106.165 17.4911 105.756 17.3018C105.346 17.1124 104.984 16.8331 104.697 16.4845C104.058 15.6912 103.73 14.692 103.775 13.6742C103.746 12.687 104.08 11.7235 104.715 10.9665C105.007 10.6231 105.371 10.3486 105.781 10.1626C106.192 9.97651 106.639 9.88349 107.089 9.89018C107.551 9.87579 108.011 9.96409 108.435 10.1487C108.859 10.3334 109.236 10.6097 109.541 10.9579C110.191 11.7365 110.529 12.7289 110.489 13.7426Z"/>
    <path d="M24.5225 0C17.0035 0 11.0225 6.06646 11.0225 13.5C11.0225 21.019 17.0889 27 24.5225 27C31.956 27 38.0225 20.9335 38.0225 13.5C38.0225 6.06646 31.956 0 24.5225 0ZM24.5225 18.4557C21.7883 18.4557 19.4813 16.1487 19.4813 13.4146C19.4813 10.6804 21.7883 8.37342 24.5225 8.37342C27.2566 8.37342 29.5636 10.6804 29.5636 13.4146C29.4782 16.2342 27.2566 18.4557 24.5225 18.4557Z"/>
    <path d="M10.9367 3.84497V23.4969H6.1519L0 3.84497H10.9367Z"/>
    <defs>
        <linearGradient id="bjpaint0_linear" x1="24.5225" y1="0" x2="24.5225" y2="27" gradientUnits="userSpaceOnUse">
            <stop stop-color="#0160D1"/>
            <stop offset="1" stop-color="#00479C"/>
        </linearGradient>
        <linearGradient id="bjpaint1_linear" x1="5.46835" y1="3.84497" x2="5.46835" y2="23.4969" gradientUnits="userSpaceOnUse">
            <stop stop-color="#0160D1"/>
            <stop offset="1" stop-color="#00479C"/>
        </linearGradient>
    </defs>
</symbol></svg>