<!-- icon666.com - MILLIONS vector ICONS FREE -->
<svg id="Layer_2_00000070097260956845954520000014475392841718903992_" enable-background="new 0 0 512 512" viewBox="0 0 512 512" xmlns="http://www.w3.org/2000/svg"><g id="Icon"><path id="ID" d="m458 457.1h-404c-29.8 0-54-24.2-54-54v-294.2c0-29.8 24.2-54 54-54h404c29.8 0 54 24.2 54 54v294.1c0 29.9-24.2 54.1-54 54.1zm-404-392.2c-24.3 0-44 19.8-44 44v294.1c0 24.3 19.8 44 44 44h404c24.3 0 44-19.8 44-44v-294.1c0-24.3-19.8-44-44-44zm177.7 307.3h-141.9c-11.1 0-21.2-5.2-27.8-14.1-6.5-9-8.4-20.2-5-30.8l16.2-50.7c2.6-8 8.5-14.6 16.2-18s16.5-3.3 24.1.2c14.2 6.5 30.1 9.8 47.2 9.8s33-3.3 47.2-9.8c7.6-3.5 16.4-3.6 24.1-.2s13.6 10 16.2 18l16.2 50.7c3.4 10.6 1.6 21.8-5 30.8-6.5 9-16.6 14.1-27.7 14.1zm-130.3-106.1c-2.7 0-5.3.6-7.8 1.7-5.1 2.2-9 6.6-10.7 11.9l-16.2 50.7c-2.4 7.5-1.1 15.5 3.5 21.8s11.8 10 19.7 10h141.9c7.9 0 15.1-3.7 19.7-10 4.6-6.4 5.9-14.3 3.5-21.8l-16.2-50.7c-1.7-5.3-5.6-9.7-10.7-11.9s-10.9-2.2-15.9.1c-15.5 7.1-32.8 10.7-51.3 10.7s-35.8-3.6-51.3-10.7c-2.7-1.2-5.5-1.7-8.2-1.8zm336 40.9h-109.8c-10.3 0-18.7-8.4-18.7-18.7s8.4-18.7 18.7-18.7h109.8c10.3 0 18.7 8.4 18.7 18.7s-8.4 18.7-18.7 18.7zm-109.8-27.4c-4.8 0-8.7 3.9-8.7 8.7s3.9 8.7 8.7 8.7h109.8c4.8 0 8.7-3.9 8.7-8.7s-3.9-8.7-8.7-8.7zm-166.8-21.2c-32.7 0-59.3-26.6-59.3-59.3s26.6-59.3 59.3-59.3 59.3 26.6 59.3 59.3-26.6 59.3-59.3 59.3zm0-108.7c-27.2 0-49.3 22.1-49.3 49.3s22.1 49.3 49.3 49.3 49.3-22.1 49.3-49.3-22.2-49.3-49.3-49.3zm276.6 108.3h-109.8c-10.3 0-18.7-8.4-18.7-18.7s8.4-18.7 18.7-18.7h109.8c10.3 0 18.7 8.4 18.7 18.7s-8.4 18.7-18.7 18.7zm-109.8-27.4c-4.8 0-8.7 3.9-8.7 8.7s3.9 8.7 8.7 8.7h109.8c4.8 0 8.7-3.9 8.7-8.7s-3.9-8.7-8.7-8.7zm109.8-21.6h-109.8c-10.3 0-18.7-8.4-18.7-18.7s8.4-18.7 18.7-18.7h109.8c10.3 0 18.7 8.4 18.7 18.7s-8.4 18.7-18.7 18.7zm-109.8-27.5c-4.8 0-8.7 3.9-8.7 8.7s3.9 8.7 8.7 8.7h109.8c4.8 0 8.7-3.9 8.7-8.7s-3.9-8.7-8.7-8.7z" stroke-width="18" stroke="white"></path></g></svg>