<!-- icon666.com - MILLIONS vector ICONS FREE -->
<svg id="Layer_1" viewBox="0 0 24 24" xmlns="http://www.w3.org/2000/svg" data-name="Layer 1">
<path d="m16.2486 22.50258a16.83386 16.83386 0 0 0 2.814-.23828 3.06216 3.06216 0 0 0 2.39355-2.04688l.95313-2.83984a1.76581 1.76581 0 0 0 -1.1167-2.24023l-3.44092-1.13868a1.75664 1.75664 0 0 0 -1.79687.416l-2.31934 2.12012c-.43652.10888-2.36377.42578-4.52978-1.74024-2.16997-2.17039-1.84767-4.10008-1.74028-4.52927l2.10449-2.30372a1.7649 1.7649 0 0 0 .43165-1.813l-1.13868-3.4409a1.76581 1.76581 0 0 0 -2.24023-1.11666l-2.83984.95312a3.06493 3.06493 0 0 0 -2.04737 2.39352 14.85822 14.85822 0 0 0 4.05811 13.269 14.43078 14.43078 0 0 0 10.45508 4.29594zm-13.52735-17.39697a2.06556 2.06556 0 0 1 1.37988-1.61328l2.83987-.95313a.76509.76509 0 0 1 .58984.04.758.758 0 0 1 .38281.44287l1.13866 3.44093a.78141.78141 0 0 1 -.20508.80762l-2.19823 2.40579a.49714.49714 0 0 0 -.10254.17187c-.03956.11182-.92726 2.77344 1.95214 5.65332 2.87988 2.88037 5.541 1.99366 5.65332 1.95264a.49714.49714 0 0 0 .17187-.10254l2.42188-2.21435a.7729.7729 0 0 1 .7915-.18946l3.44092 1.13867a.75806.75806 0 0 1 .44287.38282.76617.76617 0 0 1 .04.58984l-.95313 2.83984a2.0627 2.0627 0 0 1 -1.61328 1.3794 13.78048 13.78048 0 0 1 -16.1733-16.17285z" stroke-width="1.1" stroke="white"></path></svg>